<?xml version="1.0" encoding="UTF-8" standalone="no"?>
<!-- Created with Inkscape (http://www.inkscape.org/) -->

<svg
   width="26.458332mm"
   height="30.006617mm"
   viewBox="0 0 26.458332 30.006617"
   version="1.1"
   id="svg1"
   inkscape:version="1.3.2 (091e20e, 2023-11-25, custom)"
   sodipodi:docname="Zeichnung-1.svg"
   xml:space="preserve"
   xmlns:inkscape="http://www.inkscape.org/namespaces/inkscape"
   xmlns:sodipodi="http://sodipodi.sourceforge.net/DTD/sodipodi-0.dtd"
   xmlns="http://www.w3.org/2000/svg"
   xmlns:svg="http://www.w3.org/2000/svg"><sodipodi:namedview
     id="namedview1"
     pagecolor="#505050"
     bordercolor="#eeeeee"
     borderopacity="1"
     inkscape:showpageshadow="0"
     inkscape:pageopacity="0"
     inkscape:pagecheckerboard="0"
     inkscape:deskcolor="#505050"
     inkscape:document-units="mm"
     inkscape:zoom="1.5004889"
     inkscape:cx="435.85793"
     inkscape:cy="626.46247"
     inkscape:window-width="1666"
     inkscape:window-height="1194"
     inkscape:window-x="2475"
     inkscape:window-y="101"
     inkscape:window-maximized="0"
     inkscape:current-layer="layer1" /><defs
     id="defs1" /><g
     inkscape:label="Ebene 1"
     inkscape:groupmode="layer"
     id="layer1"
     transform="matrix(0.89959323,0,0,0.89959323,-45.121602,-168.99416)"
     inkscape:export-filename="..\OneDrive - BSFH Berufsfachschule\BM IT\websites\hug.bm-it.ch\images\skills\python-icon.svg"
     inkscape:export-xdpi="96"
     inkscape:export-ydpi="96"><g
       id="g4"
       transform="matrix(0.06514797,0,0,0.06514797,48.185607,187.85618)"><path
         fill="#264de4"
         d="M 71.357,460.819 30.272,0 H 481.728 L 440.599,460.746 255.724,512 Z"
         id="path1-9" /><path
         fill="#2965f1"
         d="M 405.388,431.408 440.536,37.678 H 256 v 435.146 z"
         id="path2-9" /><path
         fill="#ebebeb"
         d="m 124.46,208.59 5.065,56.517 H 256 V 208.59 Z m -5.041,-57.875 H 256 V 94.197 H 114.281 Z M 256,355.372 l -0.248,0.066 -62.944,-16.996 -4.023,-45.076 h -56.736 l 7.919,88.741 115.772,32.14 0.26,-0.073 z"
         id="path3-5" /><path
         fill="#ffffff"
         d="m 255.805,208.59 v 56.517 H 325.4 l -6.56,73.299 -63.035,17.013 v 58.8 l 115.864,-32.112 0.85,-9.549 13.28,-148.792 1.38,-15.176 10.203,-114.393 H 255.805 v 56.518 h 79.639 L 330.3,208.59 Z"
         id="path4-7" /></g></g></svg>
