<?xml version="1.0" encoding="UTF-8" standalone="no"?>
<!-- Created with Inkscape (http://www.inkscape.org/) -->

<svg
   width="26.458332mm"
   height="30.036959mm"
   viewBox="0 0 26.458332 30.036959"
   version="1.1"
   id="svg1"
   inkscape:version="1.3.2 (091e20e, 2023-11-25, custom)"
   sodipodi:docname="Zeichnung-1.svg"
   xml:space="preserve"
   xmlns:inkscape="http://www.inkscape.org/namespaces/inkscape"
   xmlns:sodipodi="http://sodipodi.sourceforge.net/DTD/sodipodi-0.dtd"
   xmlns="http://www.w3.org/2000/svg"
   xmlns:svg="http://www.w3.org/2000/svg"><sodipodi:namedview
     id="namedview1"
     pagecolor="#505050"
     bordercolor="#eeeeee"
     borderopacity="1"
     inkscape:showpageshadow="0"
     inkscape:pageopacity="0"
     inkscape:pagecheckerboard="0"
     inkscape:deskcolor="#505050"
     inkscape:document-units="mm"
     inkscape:zoom="1.5004889"
     inkscape:cx="435.85793"
     inkscape:cy="626.46247"
     inkscape:window-width="1666"
     inkscape:window-height="1194"
     inkscape:window-x="2475"
     inkscape:window-y="101"
     inkscape:window-maximized="0"
     inkscape:current-layer="layer1" /><defs
     id="defs1" /><g
     inkscape:label="Ebene 1"
     inkscape:groupmode="layer"
     id="layer1"
     transform="matrix(0.89959323,0,0,0.89959323,7.3648423,-159.1196)"
     inkscape:export-filename="..\OneDrive - BSFH Berufsfachschule\BM IT\websites\hug.bm-it.ch\images\skills\python-icon.svg"
     inkscape:export-xdpi="96"
     inkscape:export-ydpi="96"><g
       id="g3"
       transform="matrix(0.06521384,0,0,0.06521384,-10.143281,176.87949)"><path
         fill="#e34f26"
         d="M 71,460 30,0 h 451 l -41,460 -185,52"
         id="path1-3" /><path
         fill="#ef652a"
         d="M 256,472 405,431 440,37 H 256"
         id="path2-3" /><path
         fill="#ebebeb"
         d="m 256,208 h -75 l -5,-58 h 80 V 94 h -1 -141 l 1,15 14,156 h 127 z m 0,147 h -1 l -63,-17 -4,-45 h -30 -26 l 7,89 116,32 h 1 z"
         id="path3-1" /><path
         fill="#ffffff"
         d="m 255,208 v 57 h 70 l -7,73 -63,17 v 59 l 116,-32 1,-10 13,-149 2,-15 h -16 z m 0,-114 v 35 21 0 h 137 v 0 0 l 1,-12 3,-29 1,-15 z"
         id="path4-9" /></g></g></svg>
