<?xml version="1.0" encoding="UTF-8" standalone="no"?>
<svg
   id="a"
   width="574.65"
   height="186.3"
   viewBox="0 0 574.65 186.3"
   version="1.1"
   sodipodi:docname="espas.svg"
   inkscape:version="1.3.2 (091e20e, 2023-11-25, custom)"
   xmlns:inkscape="http://www.inkscape.org/namespaces/inkscape"
   xmlns:sodipodi="http://sodipodi.sourceforge.net/DTD/sodipodi-0.dtd"
   xmlns="http://www.w3.org/2000/svg"
   xmlns:svg="http://www.w3.org/2000/svg">
  <defs
     id="defs3" />
  <sodipodi:namedview
     id="namedview3"
     pagecolor="#ffffff"
     bordercolor="#000000"
     borderopacity="0.25"
     inkscape:showpageshadow="2"
     inkscape:pageopacity="0.0"
     inkscape:pagecheckerboard="0"
     inkscape:deskcolor="#d1d1d1"
     showgrid="false"
     inkscape:zoom="1.2042112"
     inkscape:cx="307.25507"
     inkscape:cy="86.363587"
     inkscape:window-width="1558"
     inkscape:window-height="870"
     inkscape:window-x="2230"
     inkscape:window-y="59"
     inkscape:window-maximized="0"
     inkscape:current-layer="a" />
  <rect
     id="b"
     x="-112.22"
     y="-114.15"
     width="800"
     height="410.81"
     fill="none" />
  <polygon
     points="0 1.94 62.85 1.94 62.85 16.08 16.08 16.08 16.08 48.88 58.68 48.88 58.68 63.03 16.08 63.03 16.08 100 62.85 100 62.85 114.15 0 114.15 0 1.94"
     id="polygon1"
     style="fill:#ffffff" />
  <path
     d="m184.2,18.81c-8.2-3.22-12.69-4.66-21.07-4.66-8.99,0-19.6,3.21-19.6,14.95,0,21.54,48.23,16.56,48.23,53.53,0,23.96-18.49,33.43-40.99,33.43-7.88,0-15.6-2.24-22.99-4.65l1.59-14.96c5.48,2.26,15.13,5.48,23.34,5.48,9.15,0,22-5.16,22-18.34,0-25.07-48.21-18.18-48.21-53.05,0-19.94,15.75-30.56,36.01-30.56,7.39,0,16.24,1.29,23.96,4.02l-2.27,14.79Z"
     id="path1"
     style="fill:#ffffff" />
  <path
     d="m273.78,55.16h15.91c9.97,0,22.49-4.99,22.49-19.79s-14.77-19.28-24.75-19.28h-13.66v39.08ZM257.72,1.94h29.4c23,0,42.14,8.04,42.14,33.6s-19.45,33.77-39.73,33.77h-15.75v44.85h-16.06V1.94Z"
     id="path2"
     style="fill:#ffffff" />
  <path
     d="m567.09,18.81c-8.18-3.22-12.69-4.66-21.05-4.66-9.01,0-19.6,3.21-19.6,14.95,0,21.54,48.21,16.56,48.21,53.53,0,23.96-18.49,33.43-40.99,33.43-7.88,0-15.6-2.24-22.99-4.65l1.61-14.96c5.47,2.26,15.11,5.48,23.31,5.48,9.17,0,22.03-5.16,22.03-18.34,0-25.07-48.23-18.18-48.23-53.05,0-19.94,15.76-30.56,36.02-30.56,7.39,0,16.22,1.29,23.94,4.02l-2.25,14.79Z"
     id="path3"
     style="fill:#ffffff" />
  <polygon
     points="412.3 16.3 374.91 114.11 358.53 114.11 405.01 1.91 421.38 1.91 467.38 114.11 450.4 114.11 412.3 16.3"
     id="polygon3"
     style="fill:#ffffff" />
  <rect
     x="404.9"
     y="72.22"
     width="15.56"
     height="112.22"
     fill="#bf362b"
     id="rect3" />
</svg>
