<?xml version="1.0" encoding="utf-8"?>
<!-- Generator: Adobe Illustrator 28.2.0, SVG Export Plug-In . SVG Version: 6.00 Build 0)  -->
<svg version="1.1" xmlns="http://www.w3.org/2000/svg" xmlns:xlink="http://www.w3.org/1999/xlink" x="0px" y="0px"
	 viewBox="0 0 316.7 127.6" style="enable-background:new 0 0 316.7 127.6;" xml:space="preserve">
<style type="text/css">
	.st0{fill:#FFFFFF;}
	.st1{fill:#706F6F;}
	.st2{fill:#1794CB;}
</style>
<g id="Ebene_2">
</g>
<g id="Ebene_1">
	<g>
		<g>
			<path class="st2" d="M173,64.6h-4c-0.5,0-0.8,0.2-1.1,0.5c-0.1,0.3-1.5,5.9-4,16.8h0c-0.1-0.7-1.4-6.1-3.9-16.5
				c-0.2-0.5-0.5-0.8-1.1-0.8h-4.2c-0.4,0-0.8,0.2-1,0.6c-2.2,9.4-3.6,14.9-4,16.7h0c-2.6-10.9-3.9-16.4-4-16.6
				c-0.2-0.4-0.5-0.6-1-0.6h-4.1c-0.1,0-0.2,0-0.4,0c-0.6,0.2-0.8,0.5-0.8,1c0,0.1,2.2,9.2,6.5,27.4c0.2,0.4,0.6,0.7,1.1,0.7h5.4
				c0.5,0,0.8-0.2,1.1-0.5c0.1-0.2,1.2-4.8,3.3-13.9h0l3.2,13.6c0.2,0.5,0.5,0.8,1.1,0.8h5.6c0.3,0,0.5-0.1,0.8-0.3
				c0.2-0.1,0.4-0.5,0.5-1.2c4.2-17.6,6.3-26.5,6.3-26.6v0c0-0.1,0-0.2,0-0.4C174,64.9,173.6,64.6,173,64.6z"/>
			<path class="st2" d="M191.5,66c-1.2-0.9-2.8-1.3-4.7-1.3h-3.2c-1.1,0-1.9,0.1-2.6,0.3c-1.8,0.6-3.1,1.6-4,3
				c-0.8,1.2-1.2,2.7-1.2,4.5v13.5c0,1.1,0.1,2,0.3,2.6c0.6,1.8,1.6,3.1,3,4c1.1,0.8,2.6,1.2,4.5,1.2h3.2c1.6,0,3-0.3,4.1-0.9
				c0.5-0.3,1.1-0.8,1.8-1.5c1.2-1.5,1.8-3,1.8-4.5v-0.4c0,0,0-0.1,0-0.3c-0.2-0.4-0.6-0.6-1.2-0.6h-3.8c-0.8,0-1.2,0.4-1.2,1.3
				c-0.2,0.5-0.5,0.8-0.9,0.8h-4.3c-0.1,0-0.1,0-0.2,0c-0.5-0.2-0.8-0.5-0.8-0.9v-3.2h4.7c1.6,0,3-0.3,4.1-0.9
				c0.5-0.3,1.1-0.8,1.8-1.5c1.2-1.5,1.8-3,1.8-4.5v-4.8c0-1.1-0.4-2.4-1.1-3.6C192.8,67.1,192.2,66.4,191.5,66z M188.3,76.1
				c0,0.1,0,0.1,0,0.2c-0.2,0.5-0.5,0.8-0.9,0.8h-5.2v-5.2c0-0.1,0-0.2,0-0.2c0.2-0.5,0.5-0.8,0.9-0.8h4.3c0.1,0,0.2,0,0.2,0
				c0.5,0.2,0.7,0.5,0.7,0.9V76.1z"/>
			<path class="st2" d="M209.1,64.6h-3.4c-1.1,0-1.9,0.1-2.5,0.3c-1.8,0.6-3.2,1.6-4,3c-0.8,1.1-1.2,2.6-1.2,4.5v20.1
				c0,0.3,0,0.4,0.1,0.5c0.2,0.4,0.5,0.7,1.1,0.7h3.9c0.3,0,0.4,0,0.5-0.1c0.4-0.2,0.7-0.5,0.7-1.1V71.9c0-0.1,0-0.1,0-0.2
				c0.2-0.5,0.5-0.8,0.9-0.8h4.1c0.3,0,0.4,0,0.5-0.1c0.4-0.2,0.7-0.5,0.7-1.1v-3.8C210.3,65.1,209.9,64.6,209.1,64.6z"/>
			<path class="st2" d="M222.1,71.3c0.3,0,0.4,0,0.6-0.1c0.5-0.2,0.7-0.6,0.7-1.2v-4.1c0-0.3,0-0.4-0.1-0.6
				c-0.2-0.5-0.6-0.7-1.2-0.7h-3.2v-5c0-0.7-0.3-1.1-0.9-1.2h-4.8c-0.6,0.1-0.9,0.5-0.9,1.2v25.8c0,1.2,0.1,2.1,0.3,2.7
				c0.6,1.9,1.7,3.3,3.1,4.3c1.2,0.9,2.8,1.3,4.8,1.3h1.5c0.3,0,0.4,0,0.6-0.1c0.5-0.2,0.7-0.6,0.7-1.2v-4.1c0-0.3,0-0.4-0.1-0.6
				c-0.2-0.5-0.6-0.7-1.2-0.7H220c-0.1,0-0.2,0-0.2,0c-0.5-0.2-0.8-0.5-0.8-1V71.3H222.1z"/>
			<path class="st1" d="M257.4,72.9h-18c-0.3,0-0.4,0-0.5,0.1c-0.4,0.2-0.7,0.6-0.7,1.1v3.8c0,0.8,0.4,1.3,1.3,1.3h18
				c0.2,0,0.4,0,0.5-0.1c0.4-0.2,0.7-0.6,0.7-1.1v-3.8C258.7,73.4,258.3,72.9,257.4,72.9z"/>
			<path class="st1" d="M22.2,38.4H14l-0.2,0c-0.6,0.2-1,0.7-1,1.4v27.6c0,0.3,0,0.5,0.1,0.7c0.1,0.3,0.5,0.8,1.4,0.8h2.9
				c0.3,0,0.5,0,0.6-0.1c0.3-0.1,0.9-0.5,0.9-1.4v-6.2h2.9c1.3,0,2.4-0.3,3.3-0.8c0.4-0.2,0.9-0.6,1.5-1.3c1-1.2,1.5-2.4,1.5-3.7
				V44.1c0-1.3-0.5-2.6-1.7-3.9C25,39,23.6,38.4,22.2,38.4z M26.7,55.4c0,1-0.4,2-1.2,3c-0.5,0.5-0.9,0.8-1.2,1
				c-0.7,0.4-1.6,0.6-2.7,0.6h-4.1v7.4c0,0.2-0.1,0.3-0.2,0.3c0,0,0,0-0.1,0h-2.9c-0.2,0-0.3-0.1-0.3-0.2c0,0,0,0,0-0.2V39.8
				c0-0.1,0-0.2,0.1-0.2h8c1.1,0,2.2,0.5,3.2,1.5c0.9,1,1.3,2.1,1.3,3.1V55.4z"/>
			<path class="st1" d="M22.4,43L22.4,43C22.2,43,22.1,43,22,43h-4.5v13.5H22c0.3,0,0.9-0.1,1.3-1c0-0.1,0-0.2,0-0.3V44.3
				C23.3,43.7,22.9,43.3,22.4,43z M22,55.3h-3.3V44.2l3.3,0c0.1,0,0.1,0.1,0.1,0.1l0,10.8C22,55.3,22,55.3,22,55.3z"/>
			<path class="st1" d="M39.2,38.3h-2.6c-0.9,0-1.6,0.1-2.1,0.3C33.1,39,32,39.9,31.3,41c-0.7,0.9-1,2.2-1,3.7v14.9
				c0,0.3,0,0.5,0.1,0.7c0.1,0.3,0.5,0.8,1.4,0.8h2.9c0.3,0,0.5,0,0.7-0.1c0.3-0.1,0.8-0.5,0.8-1.4l0-15.3c0.1-0.2,0.1-0.2,0.1-0.2
				h3c0.3,0,0.5,0,0.7-0.1c0.3-0.1,0.8-0.5,0.8-1.4v-2.8C40.8,38.9,40.2,38.3,39.2,38.3z M39.6,42.7c0,0.2-0.1,0.3-0.2,0.3
				c0,0,0,0-0.1,0h-3c-0.3,0-0.9,0.1-1.3,1c0,0.1,0,0.2,0,0.3v15.4c0,0.2-0.1,0.3-0.2,0.3c0,0,0,0-0.2,0h-2.9
				c-0.2,0-0.3-0.1-0.3-0.2c0,0,0,0,0-0.2V44.7c0-1.2,0.3-2.3,0.8-3c0.6-0.9,1.4-1.6,2.7-2c0.4-0.1,1-0.2,1.7-0.2h2.6
				c0.3,0,0.4,0,0.4,0.4V42.7z"/>
			<path class="st1" d="M56.8,44.1c0-1-0.3-2-0.9-3.1c-0.5-0.7-1-1.2-1.5-1.6c-1-0.7-2.3-1.1-3.8-1.1h-2.3c-0.9,0-1.6,0.1-2.1,0.2
				c-1.5,0.5-2.6,1.3-3.3,2.4c-0.7,1-1,2.2-1,3.7v10.1c0,1,0.1,1.7,0.3,2.3c0.5,1.4,1.3,2.5,2.5,3.1c0.9,0.6,2.1,1,3.6,1h2.2
				c0.6,0,1.1,0,1.5-0.1c1.1-0.2,2.1-0.7,3.1-1.6c1.2-1.3,1.8-2.7,1.8-4.1V44.1z M55.6,55.3c0,1.1-0.5,2.2-1.5,3.2
				c-0.8,0.7-1.7,1.1-2.5,1.3c-0.3,0.1-0.7,0.1-1.3,0.1h-2.2c-1.3,0-2.3-0.2-3-0.8c-1-0.6-1.6-1.4-2-2.6c-0.2-0.4-0.2-1-0.2-1.9
				V44.7c0-1.2,0.3-2.3,0.8-3c0.6-0.9,1.4-1.5,2.6-2c0.4-0.1,1-0.2,1.7-0.2h2.3c1.3,0,2.4,0.3,3.2,0.9c0.4,0.3,0.9,0.7,1.2,1.3
				c0.5,0.9,0.8,1.7,0.8,2.4V55.3z"/>
			<path class="st1" d="M51.3,43c-0.1-0.1-0.3-0.1-0.4-0.1h-3.2c-0.3,0-0.9,0.1-1.3,0.9l0,0.1c0,0.1,0,0.2,0,0.3v10.9
				c0,0.3,0.1,0.9,1,1.3c0.1,0,0.2,0,0.3,0h3.2c0.6,0,1-0.3,1.3-0.9l0-0.1c0-0.1,0-0.2,0-0.3V44.3C52.2,43.7,51.8,43.2,51.3,43z
				 M51,55.1c-0.1,0.1-0.1,0.1-0.1,0.1l-3.1,0c-0.2-0.1-0.2-0.1-0.2-0.1V44.3l0,0c0.1-0.1,0.1-0.1,0.1-0.1l3.1,0
				c0.2,0.1,0.2,0.1,0.2,0.1L51,55.1z"/>
			<path class="st1" d="M64.1,30.8h-3.3c0,0-0.1,0-0.3,0l-0.1,0c-0.3,0.1-0.8,0.5-0.8,1.4v2.8c0,0.3,0,0.5,0.1,0.6
				c0.2,0.6,0.7,0.9,1.4,0.9h2.8c0.1,0,0.2,0,0.4,0l0.1,0c0.9-0.3,1-0.9,1-1.2V32l0-0.2C65.1,31.1,64.7,30.8,64.1,30.8z M64,35.4
				c-0.1,0-0.1,0-0.2,0H61c-0.2,0-0.2-0.1-0.3-0.2c0,0,0,0,0-0.1v-2.8c0-0.2,0-0.3,0.1-0.3c0,0,0,0,0,0h3.2c0,0,0.1,0,0.1,0.1l0,3.2
				C64.2,35.3,64.1,35.3,64,35.4z"/>
			<path class="st1" d="M63.9,38.3h-2.9c-1,0-1.5,0.6-1.5,1.5l0,23C59.5,63,59.4,63,59.4,63h-1.5c-0.3,0-0.5,0-0.7,0.1
				c-0.3,0.1-0.8,0.5-0.8,1.4v2.9c0,0.3,0,0.5,0.1,0.6c0.1,0.3,0.5,0.8,1.4,0.8H59c1.3,0,2.4-0.3,3.3-0.8c0.4-0.2,0.9-0.6,1.5-1.2
				c1-1.2,1.5-2.5,1.5-3.7V39.6l0-0.1C65.2,38.7,64.7,38.3,63.9,38.3z M64.2,63.1c0,1-0.4,2-1.2,3c-0.5,0.5-0.9,0.8-1.2,1
				c-0.7,0.4-1.6,0.6-2.7,0.6h-1.1c-0.2,0-0.3-0.1-0.3-0.2c0,0,0,0,0-0.2v-2.9c0-0.2,0.1-0.3,0.2-0.3c0,0,0,0,0.2,0h1.5
				c0.6,0,1-0.3,1.3-1c0-0.1,0-0.2,0-0.3v-23c0-0.3,0-0.4,0.4-0.4h2.9c0.1,0,0.2,0,0.2,0.2V63.1z"/>
			<path class="st1" d="M82.9,55c0-0.1,0-0.2,0-0.3l0-0.1c-0.1-0.3-0.5-0.8-1.4-0.8h-2.8c-0.9,0-1.4,0.5-1.5,1.4
				c0,0.1-0.1,0.1-0.1,0.1l-3.1,0c-0.2-0.1-0.2-0.1-0.2-0.1v-1.8h2.9c1.3,0,2.4-0.3,3.3-0.8c0.4-0.2,0.9-0.6,1.5-1.3
				c1-1.2,1.5-2.5,1.5-3.7v-3.5c0-1-0.3-2-0.9-3.1c-0.5-0.7-1-1.2-1.5-1.6c-1-0.7-2.3-1.1-3.9-1.1h-2.3c-0.9,0-1.6,0.1-2.1,0.2
				c-1.5,0.5-2.6,1.3-3.3,2.4c-0.7,1-1,2.2-1,3.7v10.1c0,0.9,0.1,1.6,0.3,2.1c0.5,1.5,1.3,2.6,2.4,3.3c0.9,0.7,2.2,1,3.7,1h2.3
				c1.3,0,2.4-0.3,3.3-0.8c0.4-0.2,0.9-0.6,1.5-1.3c1-1.2,1.5-2.4,1.5-3.7V55z M81.8,55.3c0,1-0.4,2-1.2,3c-0.5,0.5-0.9,0.8-1.2,1
				c-0.7,0.4-1.6,0.6-2.7,0.6h-2.3c-1.3,0-2.3-0.3-3-0.8c-0.9-0.6-1.6-1.4-2-2.7c-0.1-0.4-0.2-1-0.2-1.7V44.7c0-1.2,0.3-2.3,0.8-3
				c0.6-0.9,1.4-1.5,2.6-2c0.4-0.1,1-0.2,1.7-0.2h2.3c1.3,0,2.4,0.3,3.2,0.9c0.4,0.3,0.9,0.7,1.2,1.3c0.5,0.9,0.8,1.7,0.8,2.4v3.5
				c0,1-0.4,2-1.2,3c-0.5,0.5-0.9,0.8-1.2,1c-0.7,0.4-1.6,0.6-2.7,0.6h-4.1v2.9c0,0.3,0.1,0.9,1,1.3c0.1,0,0.2,0,0.3,0H77
				c0.3,0,0.9-0.1,1.3-0.9l0-0.2c0-0.4,0.1-0.4,0.3-0.4h2.8c0.2,0,0.3,0.1,0.3,0.1V55.3z"/>
			<path class="st1" d="M78.3,47.7c0-0.1,0-0.2,0-0.3v-3.2c0-0.6-0.3-1-0.9-1.2c-0.1,0-0.3-0.1-0.4-0.1h-3.2c-0.6,0-1,0.3-1.3,0.9
				l0,0.1c0,0.1,0,0.2,0,0.3v4.5H77C77.3,48.7,77.9,48.6,78.3,47.7z M73.7,44.3L73.7,44.3c0.1-0.1,0.1-0.1,0.1-0.1l3.1,0
				c0.2,0.1,0.2,0.1,0.2,0.1l0,3.1c-0.1,0.2-0.1,0.2-0.1,0.2h-3.3V44.3z"/>
			<path class="st1" d="M102.9,39.6c0-0.1,0-0.3-0.1-0.4c-0.3-0.8-0.9-0.9-1.2-0.9h-4.1c-0.3,0-0.5,0.1-0.8,0.3
				c-0.1,0.1-0.2,0.2-1.5,1.8c-1.9,2.4-2.9,3.6-3.3,4.2c-0.2-0.2-0.4-0.6-0.8-1v-8.4c0-0.8-0.4-1.3-1.1-1.4l-3.4,0l-0.1,0
				c-0.7,0.2-1.1,0.7-1.1,1.4v24.5c0,0.3,0,0.5,0.1,0.6c0.2,0.5,0.7,0.8,1.3,0.8h3c0.1,0,0.2,0,0.3,0c0.7-0.1,1.1-0.7,1.1-1.4v-6.2
				c3.9,5.3,4.7,6.4,4.9,6.7c0.5,0.8,1,1,1.5,1h3.8c0.1,0,0.2,0,0.4,0l0.2,0c0.9-0.3,1-1,1-1.3c0-0.2-0.1-0.4-0.2-0.7l-7.2-9.6
				c5.6-7.1,6.4-8.1,6.6-8.3C102.7,40.5,102.9,40.1,102.9,39.6z M101.2,40.4c-0.1,0.2-2.4,3.1-6.9,8.7l-0.1,0.2v0.4l7.5,10.1
				c0,0,0,0.1-0.2,0.2c-0.1,0-0.1,0-0.2,0h-3.8c-0.1,0-0.2,0-0.5-0.4L97,59.4c-0.1-0.2-2.9-3.9-5.9-8L90.9,51H90v8.6
				c0,0.3-0.1,0.3-0.3,0.3h-3c-0.2,0-0.2,0-0.2-0.2c0,0,0,0,0-0.2V35.1c0-0.2,0-0.2,0.1-0.3h3.2c0.1,0,0.1,0.1,0.1,0.3V44l0.1,0.2
				c1.1,1.5,1.3,1.7,1.3,1.7l0.5,0.6l0.4-0.4c0.1-0.1,0.2-0.2,3.9-4.9c1.1-1.4,1.3-1.6,1.4-1.6l4.1,0c0,0,0,0,0.1,0.2
				C101.7,39.7,101.7,39.8,101.2,40.4z"/>
			<path class="st1" d="M107.1,60c1,0.7,2.3,1.1,3.9,1.1h1.1c0.3,0,0.5,0,0.6-0.1c0.6-0.2,0.9-0.7,0.9-1.4v-3.1c0-0.3,0-0.5-0.1-0.6
				c-0.1-0.3-0.5-0.9-1.4-0.9l-1.6,0c-0.1-0.1-0.1-0.1-0.1-0.2V44.4h1.8c0.3,0,0.5,0,0.6-0.1c0.3-0.1,0.9-0.5,0.9-1.4v-3.1
				c0-0.3,0-0.5-0.1-0.6c-0.1-0.3-0.5-0.9-1.4-0.9h-1.8v-3.1c0-0.8-0.4-1.3-1.2-1.5l-3.6,0l-0.1,0c-0.7,0.1-1.2,0.7-1.2,1.5v19.2
				c0,0.9,0.1,1.7,0.3,2.2C105,58.1,105.9,59.3,107.1,60z M105.4,54.4V35.2c0-0.2,0.1-0.3,0.2-0.3h3.4c0.1,0,0.2,0.1,0.2,0.3v4.3
				h2.9c0.3,0,0.3,0.1,0.3,0.2c0,0,0,0,0,0.2v3.1c0,0.3-0.1,0.3-0.2,0.3c0,0,0,0-0.2,0h-2.9v11.6c0,0.4,0.1,1,1,1.3l0.1,0
				c0.1,0,0.2,0,0.3,0h1.6c0.3,0,0.3,0.1,0.3,0.2c0,0,0,0,0,0.2v3.1c0,0.3-0.1,0.3-0.2,0.3c0,0,0,0-0.2,0H111
				c-1.3,0-2.4-0.3-3.3-0.9c-1-0.6-1.7-1.6-2.1-2.9C105.5,55.8,105.4,55.2,105.4,54.4z"/>
			<path class="st1" d="M79.8,64.6h-3.4c-1.1,0-1.9,0.1-2.5,0.3c-1.8,0.6-3.2,1.6-4,3c-0.8,1.1-1.2,2.6-1.2,4.5v20.1
				c0,0.3,0,0.4,0.1,0.5c0.2,0.4,0.5,0.7,1.1,0.7h3.9c0.3,0,0.4,0,0.5-0.1c0.4-0.2,0.7-0.5,0.7-1.1V71.9c0-0.1,0-0.1,0-0.2
				c0.2-0.5,0.5-0.8,0.9-0.8h4.1c0.3,0,0.4,0,0.5-0.1c0.4-0.2,0.7-0.5,0.7-1.1v-3.8C81,65.1,80.6,64.6,79.8,64.6z"/>
			<path class="st1" d="M98.7,66c-1.2-0.9-2.8-1.3-4.7-1.3h-3.2c-1.1,0-1.9,0.1-2.6,0.3c-1.8,0.6-3.1,1.6-4,3
				c-0.8,1.2-1.2,2.7-1.2,4.5v13.5c0,1.1,0.1,2,0.3,2.6c0.6,1.8,1.6,3.1,3,4c1.1,0.8,2.6,1.2,4.5,1.2H94c1.6,0,3-0.3,4.1-0.9
				c0.5-0.3,1.1-0.8,1.8-1.5c1.2-1.5,1.8-3,1.8-4.5v-0.4c0,0,0-0.1,0-0.3c-0.2-0.4-0.6-0.6-1.2-0.6h-3.8c-0.8,0-1.2,0.4-1.2,1.3
				c-0.2,0.5-0.5,0.8-0.9,0.8h-4.3c-0.1,0-0.1,0-0.2,0c-0.5-0.2-0.8-0.5-0.8-0.9v-3.2H94c1.6,0,3-0.3,4.1-0.9
				c0.5-0.3,1.1-0.8,1.8-1.5c1.2-1.5,1.8-3,1.8-4.5v-4.8c0-1.1-0.4-2.4-1.1-3.6C100,67.1,99.4,66.4,98.7,66z M95.5,76.1
				c0,0.1,0,0.1,0,0.2c-0.2,0.5-0.5,0.8-0.9,0.8h-5.2v-5.2c0-0.1,0-0.2,0-0.2c0.2-0.5,0.5-0.8,0.9-0.8h4.3c0.1,0,0.2,0,0.2,0
				c0.5,0.2,0.7,0.5,0.7,0.9V76.1z"/>
			<path class="st1" d="M110.5,71.7c0.2-0.5,0.5-0.8,0.9-0.8h4.3c0.3,0,0.5,0.1,0.7,0.3c0.2,0,0.3,0.3,0.4,1
				c0.2,0.5,0.5,0.7,1.1,0.7h3.8c0.2,0,0.3,0,0.3,0c0.6-0.1,0.9-0.5,0.9-1.1c0-0.7-0.1-1.4-0.4-2.2c-0.6-1.7-1.6-3-3-3.9
				c-1.1-0.8-2.6-1.2-4.4-1.2H112c-1.1,0-1.9,0.1-2.5,0.3c-1.8,0.6-3.1,1.6-4,3c-0.8,1.1-1.2,2.6-1.2,4.5v2c0,1.4,0.2,2.4,0.5,3.1
				c0.2,0.7,0.6,1.4,1.2,2.1c1.6,1.8,3.4,2.7,5.5,2.7h4.2c0.2,0,0.3,0,0.4,0.1c0.5,0.2,0.7,0.5,0.7,0.8v3.3c0,0.1,0,0.1,0,0.2
				c-0.2,0.5-0.5,0.8-0.9,0.8h-4.3c-0.3,0-0.5-0.1-0.7-0.3c-0.2,0-0.3-0.3-0.4-1c-0.2-0.5-0.5-0.7-1.1-0.7h-3.8c-0.2,0-0.3,0-0.3,0
				c-0.6,0.1-0.9,0.5-0.9,1.1c0,0.7,0.1,1.4,0.4,2.2c0.6,1.7,1.6,3,3,3.9c1.1,0.8,2.6,1.2,4.4,1.2h3.2c1.1,0,1.9-0.1,2.5-0.3
				c1.8-0.6,3.1-1.6,4-3c0.8-1.1,1.2-2.6,1.2-4.5v-2c0-1.4-0.2-2.4-0.5-3.1c-0.2-0.7-0.6-1.4-1.2-2.1c-1.6-1.8-3.4-2.7-5.5-2.7h-4.2
				c-0.2,0-0.3,0-0.4-0.1c-0.5-0.2-0.7-0.5-0.7-0.8v-3.3C110.5,71.8,110.5,71.7,110.5,71.7z"/>
			<path class="st1" d="M135.8,64.6h-3.2v-5c0-0.7-0.3-1.1-0.9-1.2H127c-0.6,0.1-0.9,0.5-0.9,1.2v25.8c0,1.2,0.1,2.1,0.3,2.7
				c0.6,1.9,1.7,3.3,3.1,4.3c1.2,0.9,2.8,1.3,4.8,1.3h1.5c0.3,0,0.4,0,0.6-0.1c0.5-0.2,0.7-0.6,0.7-1.2v-4.1c0-0.3,0-0.4-0.1-0.6
				c-0.2-0.5-0.6-0.7-1.2-0.7h-2.1c-0.1,0-0.2,0-0.2,0c-0.5-0.2-0.8-0.5-0.8-1V71.3h3.2c0.3,0,0.4,0,0.6-0.1
				c0.5-0.2,0.7-0.6,0.7-1.2v-4.1c0-0.3,0-0.4-0.1-0.6C136.8,64.9,136.4,64.6,135.8,64.6z"/>
			<path class="st1" d="M232.7,87.5h-3.9c-0.2,0-0.3,0-0.4,0c-0.5,0.2-0.8,0.5-0.8,0.9v4.4c0.2,0.5,0.6,0.8,1.1,0.8h3.9
				c0.1,0,0.2,0,0.4,0c0.5-0.2,0.8-0.5,0.8-1v-4.2c0-0.1,0-0.2,0-0.2C233.7,87.7,233.3,87.5,232.7,87.5z"/>
		</g>
		<g>
			<path class="st1" d="M74.4,110.2c0,0.1,0,0.2,0,0.3s0,0.1-0.1,0.2c0,0-0.1,0.1-0.1,0.1s-0.1,0-0.1,0h-5.1c-0.1,0-0.2,0-0.4-0.1
				s-0.2-0.2-0.2-0.4v-9.4c0-0.2,0.1-0.4,0.2-0.4s0.2-0.1,0.4-0.1h5c0,0,0.1,0,0.1,0c0,0,0.1,0.1,0.1,0.1c0,0,0,0.1,0.1,0.2
				s0,0.2,0,0.3c0,0.1,0,0.2,0,0.3s0,0.1-0.1,0.2c0,0,0,0.1-0.1,0.1c0,0-0.1,0-0.1,0h-4.1v3.3h3.5c0,0,0.1,0,0.1,0s0.1,0.1,0.1,0.1
				c0,0,0,0.1,0.1,0.2s0,0.2,0,0.3c0,0.1,0,0.2,0,0.3c0,0.1,0,0.1-0.1,0.2c0,0-0.1,0.1-0.1,0.1c0,0-0.1,0-0.1,0h-3.5v3.8h4.2
				c0,0,0.1,0,0.1,0s0.1,0.1,0.1,0.1c0,0,0,0.1,0.1,0.2S74.4,110.1,74.4,110.2z"/>
			<path class="st1" d="M78,100.8c0,0.3-0.1,0.5-0.2,0.6c-0.1,0.1-0.3,0.2-0.7,0.2c-0.3,0-0.5-0.1-0.6-0.2c-0.1-0.1-0.2-0.3-0.2-0.6
				c0-0.3,0.1-0.5,0.2-0.6c0.1-0.1,0.3-0.2,0.7-0.2c0.3,0,0.5,0.1,0.6,0.2C78,100.3,78,100.5,78,100.8z M77.9,110.6c0,0,0,0.1,0,0.1
				c0,0-0.1,0.1-0.1,0.1s-0.1,0-0.2,0s-0.2,0-0.3,0c-0.1,0-0.2,0-0.3,0s-0.2,0-0.2,0s-0.1,0-0.1-0.1c0,0,0-0.1,0-0.1v-7.3
				c0,0,0-0.1,0-0.1c0,0,0.1-0.1,0.1-0.1c0.1,0,0.1,0,0.2,0c0.1,0,0.2,0,0.3,0c0.1,0,0.2,0,0.3,0c0.1,0,0.2,0,0.2,0
				c0,0,0.1,0,0.1,0.1c0,0,0,0.1,0,0.1V110.6z"/>
			<path class="st1" d="M86.7,110.6c0,0,0,0.1,0,0.1c0,0-0.1,0.1-0.1,0.1s-0.1,0-0.2,0s-0.2,0-0.3,0c-0.1,0-0.2,0-0.3,0
				s-0.2,0-0.2,0s-0.1,0-0.1-0.1c0,0,0-0.1,0-0.1v-4.3c0-0.4,0-0.8-0.1-1s-0.2-0.5-0.3-0.7s-0.3-0.3-0.5-0.4s-0.4-0.1-0.7-0.1
				c-0.3,0-0.7,0.1-1,0.4c-0.3,0.2-0.7,0.6-1.1,1.1v5.1c0,0,0,0.1,0,0.1c0,0-0.1,0.1-0.1,0.1s-0.1,0-0.2,0s-0.2,0-0.3,0
				c-0.1,0-0.2,0-0.3,0s-0.2,0-0.2,0s-0.1,0-0.1-0.1c0,0,0-0.1,0-0.1v-7.3c0,0,0-0.1,0-0.1c0,0,0-0.1,0.1-0.1s0.1,0,0.2,0
				c0.1,0,0.2,0,0.3,0c0.1,0,0.2,0,0.3,0c0.1,0,0.1,0,0.2,0c0,0,0.1,0.1,0.1,0.1c0,0,0,0.1,0,0.1v1c0.4-0.5,0.8-0.8,1.2-1
				c0.4-0.2,0.8-0.3,1.2-0.3c0.5,0,0.9,0.1,1.2,0.2c0.3,0.2,0.6,0.4,0.8,0.7c0.2,0.3,0.4,0.6,0.4,1c0.1,0.4,0.1,0.8,0.1,1.3V110.6z"
				/>
			<path class="st1" d="M98.7,107.8c0,0.5-0.1,0.9-0.3,1.3c-0.2,0.4-0.4,0.7-0.8,1c-0.3,0.3-0.7,0.5-1.1,0.6
				c-0.4,0.1-0.9,0.2-1.4,0.2c-0.4,0-0.7,0-1-0.1c-0.3-0.1-0.6-0.1-0.8-0.2s-0.4-0.2-0.6-0.3c-0.2-0.1-0.3-0.2-0.3-0.2
				c-0.1-0.1-0.1-0.1-0.1-0.2c0-0.1,0-0.2,0-0.4c0-0.1,0-0.2,0-0.3c0-0.1,0-0.1,0-0.2c0,0,0-0.1,0.1-0.1c0,0,0.1,0,0.1,0
				c0.1,0,0.2,0,0.3,0.1c0.1,0.1,0.3,0.2,0.5,0.3c0.2,0.1,0.5,0.2,0.8,0.3s0.7,0.1,1.1,0.1c0.3,0,0.6,0,0.8-0.1
				c0.3-0.1,0.5-0.2,0.7-0.3c0.2-0.1,0.3-0.3,0.4-0.5c0.1-0.2,0.1-0.5,0.1-0.7c0-0.3-0.1-0.6-0.2-0.8c-0.1-0.2-0.3-0.4-0.5-0.6
				s-0.5-0.3-0.8-0.4c-0.3-0.1-0.6-0.3-0.9-0.4s-0.6-0.3-0.9-0.5s-0.5-0.4-0.8-0.6c-0.2-0.2-0.4-0.5-0.5-0.8
				c-0.1-0.3-0.2-0.7-0.2-1.1c0-0.4,0.1-0.8,0.2-1.2s0.4-0.6,0.7-0.9c0.3-0.2,0.6-0.4,1-0.5s0.8-0.2,1.3-0.2c0.2,0,0.5,0,0.7,0.1
				c0.2,0,0.5,0.1,0.7,0.2c0.2,0.1,0.4,0.1,0.6,0.2s0.3,0.2,0.3,0.2c0.1,0.1,0.1,0.1,0.1,0.1c0,0,0,0.1,0,0.1c0,0,0,0.1,0,0.2
				c0,0.1,0,0.1,0,0.3c0,0.1,0,0.2,0,0.3c0,0.1,0,0.1,0,0.2c0,0.1,0,0.1-0.1,0.1c0,0-0.1,0-0.1,0c-0.1,0-0.2,0-0.3-0.1
				c-0.1-0.1-0.3-0.2-0.5-0.3c-0.2-0.1-0.4-0.2-0.7-0.3c-0.3-0.1-0.5-0.1-0.9-0.1c-0.3,0-0.5,0-0.8,0.1c-0.2,0.1-0.4,0.2-0.5,0.3
				c-0.1,0.1-0.2,0.3-0.3,0.5c-0.1,0.2-0.1,0.4-0.1,0.6c0,0.3,0.1,0.5,0.2,0.8c0.1,0.2,0.3,0.4,0.5,0.6c0.2,0.2,0.5,0.3,0.8,0.4
				c0.3,0.1,0.6,0.3,0.9,0.4c0.3,0.1,0.6,0.3,0.9,0.5c0.3,0.2,0.5,0.4,0.8,0.6c0.2,0.2,0.4,0.5,0.5,0.8
				C98.6,107.1,98.7,107.4,98.7,107.8z"/>
			<path class="st1" d="M107.4,106.9c0,0.6-0.1,1.1-0.2,1.6s-0.4,0.9-0.7,1.3c-0.3,0.4-0.7,0.6-1.2,0.9c-0.5,0.2-1,0.3-1.6,0.3
				c-0.6,0-1.1-0.1-1.6-0.3c-0.4-0.2-0.8-0.4-1.1-0.8s-0.5-0.8-0.7-1.2c-0.1-0.5-0.2-1-0.2-1.7c0-0.6,0.1-1.1,0.2-1.6
				s0.4-0.9,0.7-1.3c0.3-0.4,0.7-0.6,1.2-0.8c0.5-0.2,1-0.3,1.6-0.3c0.6,0,1.1,0.1,1.6,0.3c0.4,0.2,0.8,0.4,1.1,0.8
				c0.3,0.3,0.5,0.8,0.7,1.2C107.3,105.7,107.4,106.2,107.4,106.9z M106,106.9c0-0.4,0-0.8-0.1-1.1c-0.1-0.4-0.2-0.7-0.4-0.9
				c-0.2-0.3-0.4-0.5-0.7-0.6c-0.3-0.2-0.7-0.2-1.1-0.2c-0.4,0-0.7,0.1-1,0.2c-0.3,0.1-0.5,0.3-0.7,0.6c-0.2,0.3-0.3,0.6-0.4,0.9
				c-0.1,0.4-0.1,0.7-0.1,1.2c0,0.4,0,0.8,0.1,1.1c0.1,0.4,0.2,0.7,0.4,0.9s0.4,0.5,0.7,0.6s0.7,0.2,1.1,0.2c0.4,0,0.7-0.1,1-0.2
				c0.3-0.1,0.5-0.3,0.7-0.6c0.2-0.3,0.3-0.6,0.4-0.9C105.9,107.8,106,107.4,106,106.9z"/>
			<path class="st1" d="M113.8,110.2c0,0.1,0,0.2,0,0.3s0,0.1-0.1,0.2c0,0-0.1,0.1-0.1,0.1c0,0-0.1,0-0.1,0H109
				c-0.1,0-0.2,0-0.3-0.1c-0.1-0.1-0.1-0.2-0.1-0.4V110c0-0.1,0-0.1,0-0.2c0-0.1,0-0.1,0-0.2c0-0.1,0.1-0.1,0.1-0.2
				c0-0.1,0.1-0.1,0.1-0.2l3.2-5H109c-0.1,0-0.2,0-0.2-0.1c-0.1-0.1-0.1-0.2-0.1-0.4c0-0.1,0-0.2,0-0.3s0-0.1,0.1-0.2
				c0,0,0.1-0.1,0.1-0.1c0,0,0.1,0,0.1,0h4.2c0.1,0,0.1,0,0.2,0c0,0,0.1,0,0.1,0.1c0,0,0.1,0.1,0.1,0.1c0,0.1,0,0.1,0,0.2v0.3
				c0,0.1,0,0.1,0,0.2s0,0.1,0,0.2s-0.1,0.1-0.1,0.2c0,0.1-0.1,0.1-0.1,0.2l-3.2,5h3.4c0,0,0.1,0,0.1,0c0,0,0.1,0.1,0.1,0.1
				c0,0,0,0.1,0.1,0.2S113.8,110.1,113.8,110.2z"/>
			<path class="st1" d="M117.2,100.8c0,0.3-0.1,0.5-0.2,0.6c-0.1,0.1-0.3,0.2-0.7,0.2c-0.3,0-0.5-0.1-0.6-0.2
				c-0.1-0.1-0.2-0.3-0.2-0.6c0-0.3,0.1-0.5,0.2-0.6c0.1-0.1,0.3-0.2,0.7-0.2c0.3,0,0.5,0.1,0.6,0.2
				C117.1,100.3,117.2,100.5,117.2,100.8z M117,110.6c0,0,0,0.1,0,0.1c0,0-0.1,0.1-0.1,0.1s-0.1,0-0.2,0s-0.2,0-0.3,0
				c-0.1,0-0.2,0-0.3,0s-0.2,0-0.2,0s-0.1,0-0.1-0.1c0,0,0-0.1,0-0.1v-7.3c0,0,0-0.1,0-0.1c0,0,0.1-0.1,0.1-0.1c0.1,0,0.1,0,0.2,0
				c0.1,0,0.2,0,0.3,0c0.1,0,0.2,0,0.3,0c0.1,0,0.2,0,0.2,0c0,0,0.1,0,0.1,0.1c0,0,0,0.1,0,0.1V110.6z"/>
			<path class="st1" d="M125.1,110.6c0,0.1,0,0.1-0.1,0.1c0,0-0.1,0.1-0.2,0.1s-0.2,0-0.3,0c-0.1,0-0.3,0-0.3,0s-0.1,0-0.2-0.1
				c0,0-0.1-0.1-0.1-0.1v-0.7c-0.3,0.3-0.7,0.6-1.1,0.8c-0.4,0.2-0.8,0.3-1.2,0.3c-0.4,0-0.7,0-1-0.2c-0.3-0.1-0.6-0.2-0.8-0.4
				c-0.2-0.2-0.4-0.4-0.5-0.7c-0.1-0.3-0.2-0.6-0.2-0.9c0-0.4,0.1-0.8,0.3-1.1c0.2-0.3,0.4-0.6,0.7-0.8c0.3-0.2,0.7-0.4,1.2-0.5
				c0.5-0.1,1-0.2,1.5-0.2h1v-0.6c0-0.3,0-0.5-0.1-0.7c-0.1-0.2-0.2-0.4-0.3-0.5c-0.1-0.1-0.3-0.3-0.5-0.3s-0.5-0.1-0.8-0.1
				c-0.3,0-0.6,0-0.9,0.1c-0.3,0.1-0.5,0.2-0.7,0.3s-0.4,0.2-0.5,0.3c-0.1,0.1-0.2,0.1-0.3,0.1c0,0-0.1,0-0.1,0c0,0-0.1-0.1-0.1-0.1
				c0,0,0-0.1-0.1-0.2c0-0.1,0-0.1,0-0.2c0-0.1,0-0.2,0-0.3c0-0.1,0.1-0.2,0.1-0.2c0.1-0.1,0.2-0.2,0.4-0.2c0.2-0.1,0.4-0.2,0.6-0.3
				c0.2-0.1,0.5-0.1,0.8-0.2c0.3-0.1,0.6-0.1,0.8-0.1c0.5,0,1,0.1,1.3,0.2c0.4,0.1,0.7,0.3,0.9,0.5c0.2,0.2,0.4,0.5,0.5,0.9
				c0.1,0.3,0.2,0.7,0.2,1.2V110.6z M123.7,107.3h-1.1c-0.4,0-0.7,0-1,0.1c-0.3,0.1-0.5,0.2-0.7,0.3c-0.2,0.1-0.3,0.3-0.4,0.4
				s-0.1,0.4-0.1,0.6c0,0.4,0.1,0.7,0.4,0.9s0.6,0.3,1,0.3c0.4,0,0.7-0.1,1-0.3c0.3-0.2,0.6-0.5,0.9-0.8V107.3z"/>
			<path class="st1" d="M128.9,110.6c0,0,0,0.1,0,0.1c0,0-0.1,0.1-0.1,0.1s-0.1,0-0.2,0s-0.2,0-0.3,0c-0.1,0-0.2,0-0.3,0
				s-0.2,0-0.2,0s-0.1,0-0.1-0.1c0,0,0-0.1,0-0.1V99.7c0,0,0-0.1,0-0.1c0,0,0.1-0.1,0.1-0.1s0.1,0,0.2,0s0.2,0,0.3,0
				c0.1,0,0.2,0,0.3,0s0.2,0,0.2,0s0.1,0,0.1,0.1c0,0,0,0.1,0,0.1V110.6z"/>
			<path class="st1" d="M138.1,106.8c0,0.6-0.1,1.2-0.2,1.7c-0.1,0.5-0.3,0.9-0.6,1.3s-0.6,0.6-1,0.8c-0.4,0.2-0.8,0.3-1.4,0.3
				c-0.2,0-0.4,0-0.6-0.1c-0.2,0-0.4-0.1-0.5-0.2c-0.2-0.1-0.4-0.2-0.5-0.3c-0.2-0.1-0.4-0.3-0.6-0.5v3.7c0,0,0,0.1,0,0.1
				c0,0-0.1,0.1-0.1,0.1s-0.1,0-0.2,0s-0.2,0-0.3,0c-0.1,0-0.2,0-0.3,0s-0.2,0-0.2,0s-0.1,0-0.1-0.1c0,0,0-0.1,0-0.1v-10.2
				c0,0,0-0.1,0-0.1c0,0,0-0.1,0.1-0.1s0.1,0,0.2,0c0.1,0,0.2,0,0.3,0c0.1,0,0.2,0,0.3,0c0.1,0,0.1,0,0.2,0s0.1,0,0.1,0.1
				c0,0,0,0.1,0,0.1v1c0.2-0.2,0.4-0.4,0.6-0.6c0.2-0.2,0.4-0.3,0.6-0.4s0.4-0.2,0.6-0.3c0.2-0.1,0.5-0.1,0.7-0.1
				c0.5,0,1,0.1,1.4,0.3c0.4,0.2,0.7,0.5,0.9,0.8c0.2,0.4,0.4,0.8,0.5,1.2C138,105.8,138.1,106.3,138.1,106.8z M136.7,107
				c0-0.4,0-0.7-0.1-1.1c-0.1-0.4-0.2-0.7-0.3-0.9s-0.3-0.5-0.6-0.7c-0.2-0.2-0.5-0.2-0.9-0.2c-0.2,0-0.3,0-0.5,0.1
				c-0.2,0.1-0.3,0.1-0.5,0.2s-0.4,0.3-0.5,0.4c-0.2,0.2-0.4,0.4-0.6,0.7v2.9c0.4,0.5,0.7,0.8,1.1,1c0.3,0.2,0.7,0.4,1,0.4
				c0.3,0,0.6-0.1,0.9-0.2c0.2-0.2,0.4-0.4,0.6-0.7c0.2-0.3,0.3-0.6,0.3-0.9C136.7,107.7,136.7,107.3,136.7,107z"/>
			<path class="st1" d="M144.4,103.8c0,0.1,0,0.2,0,0.3c0,0.1,0,0.1,0,0.2c0,0,0,0.1-0.1,0.1s-0.1,0-0.1,0c0,0-0.1,0-0.2,0
				s-0.1,0-0.2-0.1s-0.2,0-0.3-0.1s-0.2,0-0.3,0c-0.1,0-0.3,0-0.4,0.1c-0.1,0.1-0.3,0.1-0.4,0.3c-0.1,0.1-0.3,0.3-0.5,0.5
				c-0.2,0.2-0.3,0.5-0.5,0.8v4.8c0,0,0,0.1,0,0.1c0,0-0.1,0.1-0.1,0.1s-0.1,0-0.2,0s-0.2,0-0.3,0c-0.1,0-0.2,0-0.3,0s-0.2,0-0.2,0
				s-0.1,0-0.1-0.1c0,0,0-0.1,0-0.1v-7.3c0,0,0-0.1,0-0.1c0,0,0-0.1,0.1-0.1s0.1,0,0.2,0c0.1,0,0.2,0,0.3,0c0.1,0,0.2,0,0.3,0
				c0.1,0,0.1,0,0.2,0c0,0,0.1,0.1,0.1,0.1c0,0,0,0.1,0,0.1v1.1c0.2-0.3,0.4-0.5,0.6-0.7c0.2-0.2,0.3-0.3,0.5-0.4
				c0.2-0.1,0.3-0.2,0.5-0.2c0.2,0,0.3-0.1,0.5-0.1c0.1,0,0.2,0,0.2,0c0.1,0,0.2,0,0.3,0c0.1,0,0.2,0,0.3,0.1c0.1,0,0.1,0.1,0.2,0.1
				c0,0,0.1,0.1,0.1,0.1s0,0.1,0,0.1s0,0.1,0,0.2C144.4,103.5,144.4,103.6,144.4,103.8z"/>
			<path class="st1" d="M152.5,106.9c0,0.6-0.1,1.1-0.2,1.6s-0.4,0.9-0.7,1.3c-0.3,0.4-0.7,0.6-1.2,0.9c-0.5,0.2-1,0.3-1.6,0.3
				c-0.6,0-1.1-0.1-1.6-0.3c-0.4-0.2-0.8-0.4-1.1-0.8s-0.5-0.8-0.7-1.2c-0.1-0.5-0.2-1-0.2-1.7c0-0.6,0.1-1.1,0.2-1.6
				s0.4-0.9,0.7-1.3c0.3-0.4,0.7-0.6,1.2-0.8c0.5-0.2,1-0.3,1.6-0.3c0.6,0,1.1,0.1,1.6,0.3c0.4,0.2,0.8,0.4,1.1,0.8
				c0.3,0.3,0.5,0.8,0.7,1.2C152.4,105.7,152.5,106.2,152.5,106.9z M151.1,106.9c0-0.4,0-0.8-0.1-1.1c-0.1-0.4-0.2-0.7-0.4-0.9
				c-0.2-0.3-0.4-0.5-0.7-0.6c-0.3-0.2-0.7-0.2-1.1-0.2c-0.4,0-0.7,0.1-1,0.2c-0.3,0.1-0.5,0.3-0.7,0.6c-0.2,0.3-0.3,0.6-0.4,0.9
				c-0.1,0.4-0.1,0.7-0.1,1.2c0,0.4,0,0.8,0.1,1.1c0.1,0.4,0.2,0.7,0.4,0.9s0.4,0.5,0.7,0.6s0.7,0.2,1.1,0.2c0.4,0,0.7-0.1,1-0.2
				c0.3-0.1,0.5-0.3,0.7-0.6c0.2-0.3,0.3-0.6,0.4-0.9C151,107.8,151.1,107.4,151.1,106.9z"/>
			<path class="st1" d="M155.9,110.9c0,0.5,0,1-0.1,1.3c-0.1,0.3-0.2,0.6-0.4,0.8c-0.2,0.2-0.4,0.4-0.7,0.5c-0.3,0.1-0.6,0.2-1,0.2
				c-0.2,0-0.3,0-0.4,0c-0.1,0-0.2,0-0.3-0.1c-0.1,0-0.1-0.1-0.1-0.1s0-0.1-0.1-0.1c0,0,0-0.1,0-0.1s0-0.1,0-0.2c0-0.1,0-0.2,0-0.3
				s0-0.1,0-0.2c0,0,0-0.1,0.1-0.1c0,0,0.1,0,0.1,0c0,0,0.1,0,0.2,0c0.1,0,0.2,0,0.3,0c0.2,0,0.3,0,0.5-0.1c0.1-0.1,0.2-0.1,0.3-0.3
				c0.1-0.1,0.1-0.3,0.2-0.5c0-0.2,0.1-0.5,0.1-0.9v-7.6c0,0,0-0.1,0-0.1c0,0,0.1-0.1,0.1-0.1c0.1,0,0.1,0,0.2,0c0.1,0,0.2,0,0.3,0
				c0.1,0,0.2,0,0.3,0c0.1,0,0.2,0,0.2,0c0.1,0,0.1,0,0.1,0.1c0,0,0,0.1,0,0.1V110.9z M156.1,100.8c0,0.3-0.1,0.5-0.2,0.6
				c-0.1,0.1-0.3,0.2-0.7,0.2c-0.3,0-0.5-0.1-0.6-0.2c-0.1-0.1-0.2-0.3-0.2-0.6c0-0.3,0.1-0.5,0.2-0.6c0.1-0.1,0.3-0.2,0.7-0.2
				s0.5,0.1,0.7,0.2S156.1,100.5,156.1,100.8z"/>
			<path class="st1" d="M164.7,106.6c0,0.2-0.1,0.4-0.2,0.5c-0.1,0.1-0.2,0.1-0.4,0.1h-4.8c0,0.4,0,0.8,0.1,1.1
				c0.1,0.3,0.2,0.6,0.4,0.8c0.2,0.2,0.4,0.4,0.7,0.5c0.3,0.1,0.7,0.2,1.1,0.2c0.3,0,0.7,0,0.9-0.1c0.3-0.1,0.5-0.1,0.7-0.2
				s0.4-0.1,0.5-0.2c0.1-0.1,0.2-0.1,0.3-0.1c0,0,0.1,0,0.1,0c0,0,0.1,0,0.1,0.1c0,0,0,0.1,0,0.2c0,0.1,0,0.2,0,0.2
				c0,0.1,0,0.1,0,0.2c0,0.1,0,0.1,0,0.1c0,0,0,0.1,0,0.1c0,0,0,0.1-0.1,0.1c0,0-0.1,0.1-0.3,0.1c-0.1,0.1-0.3,0.1-0.6,0.2
				s-0.5,0.1-0.8,0.2s-0.6,0.1-1,0.1c-0.6,0-1.1-0.1-1.6-0.3s-0.8-0.4-1.1-0.7s-0.5-0.7-0.7-1.2c-0.2-0.5-0.2-1.1-0.2-1.7
				c0-0.6,0.1-1.2,0.2-1.7c0.2-0.5,0.4-0.9,0.7-1.3c0.3-0.3,0.7-0.6,1.1-0.8c0.4-0.2,0.9-0.3,1.5-0.3c0.6,0,1.1,0.1,1.5,0.3
				c0.4,0.2,0.7,0.4,1,0.7c0.3,0.3,0.5,0.7,0.6,1.1s0.2,0.9,0.2,1.3V106.6z M163.3,106.2c0-0.7-0.1-1.3-0.5-1.7
				c-0.3-0.4-0.8-0.6-1.5-0.6c-0.3,0-0.6,0.1-0.9,0.2s-0.5,0.3-0.6,0.5c-0.2,0.2-0.3,0.4-0.4,0.7c-0.1,0.3-0.1,0.6-0.2,0.9H163.3z"
				/>
			<path class="st1" d="M172.7,110.6c0,0,0,0.1,0,0.1s-0.1,0.1-0.1,0.1s-0.1,0-0.2,0c-0.1,0-0.2,0-0.4,0c-0.1,0-0.3,0-0.4,0
				c-0.1,0-0.2,0-0.2,0c-0.1,0-0.1,0-0.2-0.1c0,0-0.1-0.1-0.1-0.1l-3.1-4.1v4.1c0,0,0,0.1,0,0.1c0,0-0.1,0.1-0.1,0.1s-0.1,0-0.2,0
				s-0.2,0-0.3,0c-0.1,0-0.2,0-0.3,0s-0.2,0-0.2,0s-0.1,0-0.1-0.1c0,0,0-0.1,0-0.1V99.7c0,0,0-0.1,0-0.1c0,0,0.1-0.1,0.1-0.1
				s0.1,0,0.2,0s0.2,0,0.3,0c0.1,0,0.2,0,0.3,0s0.2,0,0.2,0s0.1,0,0.1,0.1c0,0,0,0.1,0,0.1v6.6l2.8-3c0-0.1,0.1-0.1,0.1-0.1
				s0.1-0.1,0.2-0.1c0.1,0,0.1,0,0.2,0c0.1,0,0.2,0,0.3,0c0.1,0,0.2,0,0.3,0c0.1,0,0.2,0,0.2,0s0.1,0,0.1,0.1s0,0.1,0,0.1
				c0,0.1,0,0.1-0.1,0.2s-0.1,0.1-0.2,0.2l-2.7,2.7l3,3.9c0.1,0.1,0.1,0.2,0.2,0.2C172.7,110.5,172.7,110.5,172.7,110.6z"/>
			<path class="st1" d="M178,110.1c0,0.2,0,0.3,0,0.4c0,0.1-0.1,0.2-0.1,0.2c0,0-0.1,0.1-0.2,0.1s-0.2,0.1-0.3,0.1
				c-0.1,0-0.2,0-0.4,0.1c-0.1,0-0.2,0-0.4,0c-0.4,0-0.7-0.1-1-0.2c-0.3-0.1-0.5-0.3-0.7-0.5c-0.2-0.2-0.3-0.5-0.4-0.8
				c-0.1-0.3-0.1-0.7-0.1-1.1v-4.3h-1c-0.1,0-0.1,0-0.2-0.1s-0.1-0.2-0.1-0.4c0-0.1,0-0.2,0-0.3s0-0.1,0.1-0.2c0,0,0-0.1,0.1-0.1
				c0,0,0.1,0,0.1,0h1v-1.7c0,0,0-0.1,0-0.1c0,0,0.1-0.1,0.1-0.1s0.1,0,0.2-0.1s0.2,0,0.3,0c0.1,0,0.2,0,0.3,0s0.2,0,0.2,0.1
				s0.1,0.1,0.1,0.1s0,0.1,0,0.1v1.7h1.9c0,0,0.1,0,0.1,0c0,0,0.1,0.1,0.1,0.1c0,0,0,0.1,0.1,0.2c0,0.1,0,0.2,0,0.3
				c0,0.2,0,0.3-0.1,0.4s-0.1,0.1-0.2,0.1h-1.9v4.1c0,0.5,0.1,0.9,0.2,1.1c0.1,0.3,0.4,0.4,0.8,0.4c0.1,0,0.2,0,0.3,0
				s0.2-0.1,0.3-0.1c0.1,0,0.1-0.1,0.2-0.1c0.1,0,0.1,0,0.1,0c0,0,0.1,0,0.1,0s0,0,0.1,0.1s0,0.1,0,0.2C178,109.9,178,110,178,110.1
				z"/>
			<path class="st1" d="M194.5,110.6c0,0,0,0.1,0,0.1c0,0-0.1,0.1-0.1,0.1s-0.1,0-0.2,0s-0.2,0-0.3,0c-0.1,0-0.2,0-0.3,0
				s-0.2,0-0.2,0c-0.1,0-0.1,0-0.1-0.1c0,0,0-0.1,0-0.1v-4.5c0-0.3,0-0.6-0.1-0.8c-0.1-0.3-0.1-0.5-0.3-0.7
				c-0.1-0.2-0.3-0.3-0.5-0.4s-0.4-0.1-0.7-0.1c-0.3,0-0.6,0.1-0.9,0.4c-0.3,0.2-0.7,0.6-1,1.1v5.1c0,0,0,0.1,0,0.1
				c0,0-0.1,0.1-0.1,0.1c-0.1,0-0.1,0-0.2,0s-0.2,0-0.3,0c-0.1,0-0.2,0-0.3,0s-0.2,0-0.2,0s-0.1,0-0.1-0.1c0,0,0-0.1,0-0.1v-4.5
				c0-0.3,0-0.6-0.1-0.8s-0.1-0.5-0.3-0.7s-0.3-0.3-0.5-0.4c-0.2-0.1-0.4-0.1-0.6-0.1c-0.3,0-0.6,0.1-0.9,0.4
				c-0.3,0.2-0.7,0.6-1,1.1v5.1c0,0,0,0.1,0,0.1c0,0-0.1,0.1-0.1,0.1s-0.1,0-0.2,0s-0.2,0-0.3,0c-0.1,0-0.2,0-0.3,0s-0.2,0-0.2,0
				c-0.1,0-0.1,0-0.1-0.1c0,0,0-0.1,0-0.1v-7.3c0,0,0-0.1,0-0.1c0,0,0-0.1,0.1-0.1s0.1,0,0.2,0c0.1,0,0.2,0,0.3,0c0.1,0,0.2,0,0.3,0
				c0.1,0,0.1,0,0.2,0c0,0,0.1,0.1,0.1,0.1c0,0,0,0.1,0,0.1v1c0.4-0.5,0.8-0.8,1.2-1c0.4-0.2,0.8-0.3,1.2-0.3c0.3,0,0.6,0,0.8,0.1
				c0.2,0.1,0.5,0.2,0.6,0.3c0.2,0.1,0.3,0.3,0.5,0.5c0.1,0.2,0.2,0.4,0.3,0.6c0.2-0.3,0.5-0.5,0.7-0.7c0.2-0.2,0.4-0.3,0.6-0.4
				c0.2-0.1,0.4-0.2,0.6-0.2c0.2-0.1,0.4-0.1,0.6-0.1c0.5,0,0.9,0.1,1.2,0.2c0.3,0.2,0.6,0.4,0.8,0.7c0.2,0.3,0.3,0.6,0.4,1
				c0.1,0.4,0.1,0.8,0.1,1.2V110.6z"/>
			<path class="st1" d="M198.4,100.8c0,0.3-0.1,0.5-0.2,0.6c-0.1,0.1-0.3,0.2-0.7,0.2c-0.3,0-0.5-0.1-0.6-0.2
				c-0.1-0.1-0.2-0.3-0.2-0.6c0-0.3,0.1-0.5,0.2-0.6c0.1-0.1,0.3-0.2,0.7-0.2c0.3,0,0.5,0.1,0.6,0.2
				C198.3,100.3,198.4,100.5,198.4,100.8z M198.2,110.6c0,0,0,0.1,0,0.1c0,0-0.1,0.1-0.1,0.1s-0.1,0-0.2,0s-0.2,0-0.3,0
				c-0.1,0-0.2,0-0.3,0s-0.2,0-0.2,0s-0.1,0-0.1-0.1c0,0,0-0.1,0-0.1v-7.3c0,0,0-0.1,0-0.1c0,0,0.1-0.1,0.1-0.1c0.1,0,0.1,0,0.2,0
				c0.1,0,0.2,0,0.3,0c0.1,0,0.2,0,0.3,0c0.1,0,0.2,0,0.2,0c0,0,0.1,0,0.1,0.1c0,0,0,0.1,0,0.1V110.6z"/>
			<path class="st1" d="M204.5,110.1c0,0.2,0,0.3,0,0.4c0,0.1-0.1,0.2-0.1,0.2c0,0-0.1,0.1-0.2,0.1s-0.2,0.1-0.3,0.1
				c-0.1,0-0.2,0-0.4,0.1c-0.1,0-0.2,0-0.4,0c-0.4,0-0.7-0.1-1-0.2c-0.3-0.1-0.5-0.3-0.7-0.5c-0.2-0.2-0.3-0.5-0.4-0.8
				c-0.1-0.3-0.1-0.7-0.1-1.1v-4.3h-1c-0.1,0-0.1,0-0.2-0.1s-0.1-0.2-0.1-0.4c0-0.1,0-0.2,0-0.3s0-0.1,0.1-0.2c0,0,0-0.1,0.1-0.1
				c0,0,0.1,0,0.1,0h1v-1.7c0,0,0-0.1,0-0.1c0,0,0.1-0.1,0.1-0.1s0.1,0,0.2-0.1s0.2,0,0.3,0c0.1,0,0.2,0,0.3,0s0.2,0,0.2,0.1
				s0.1,0.1,0.1,0.1s0,0.1,0,0.1v1.7h1.9c0,0,0.1,0,0.1,0c0,0,0.1,0.1,0.1,0.1c0,0,0,0.1,0.1,0.2c0,0.1,0,0.2,0,0.3
				c0,0.2,0,0.3-0.1,0.4s-0.1,0.1-0.2,0.1h-1.9v4.1c0,0.5,0.1,0.9,0.2,1.1c0.1,0.3,0.4,0.4,0.8,0.4c0.1,0,0.2,0,0.3,0
				s0.2-0.1,0.3-0.1c0.1,0,0.1-0.1,0.2-0.1c0.1,0,0.1,0,0.1,0c0,0,0.1,0,0.1,0s0,0,0.1,0.1s0,0.1,0,0.2
				C204.5,109.9,204.5,110,204.5,110.1z"/>
			<path class="st1" d="M221.7,110.6c0,0,0,0.1,0,0.1s-0.1,0.1-0.1,0.1c-0.1,0-0.1,0-0.2,0c-0.1,0-0.2,0-0.3,0c-0.1,0-0.2,0-0.3,0
				c-0.1,0-0.2,0-0.2,0c-0.1,0-0.1,0-0.1-0.1s0-0.1,0-0.1v-9.2h0l-3.7,9.2c0,0,0,0.1-0.1,0.1s-0.1,0-0.1,0.1c-0.1,0-0.1,0-0.2,0
				c-0.1,0-0.2,0-0.3,0c-0.1,0-0.2,0-0.3,0c-0.1,0-0.1,0-0.2,0c-0.1,0-0.1,0-0.1-0.1c0,0-0.1-0.1-0.1-0.1l-3.5-9.2h0v9.2
				c0,0,0,0.1,0,0.1s-0.1,0.1-0.1,0.1c-0.1,0-0.1,0-0.2,0s-0.2,0-0.3,0c-0.1,0-0.2,0-0.3,0c-0.1,0-0.2,0-0.2,0c-0.1,0-0.1,0-0.1-0.1
				s0-0.1,0-0.1v-9.7c0-0.2,0.1-0.4,0.2-0.5s0.3-0.1,0.4-0.1h0.9c0.2,0,0.3,0,0.5,0c0.1,0,0.2,0.1,0.3,0.2c0.1,0.1,0.2,0.2,0.2,0.3
				c0.1,0.1,0.1,0.2,0.2,0.4l3,7.6h0l3.1-7.6c0.1-0.2,0.1-0.3,0.2-0.4c0.1-0.1,0.2-0.2,0.2-0.3c0.1-0.1,0.2-0.1,0.3-0.1
				c0.1,0,0.2,0,0.4,0h0.9c0.1,0,0.2,0,0.2,0c0.1,0,0.1,0.1,0.2,0.1c0.1,0.1,0.1,0.1,0.1,0.2c0,0.1,0,0.2,0,0.3V110.6z"/>
			<path class="st1" d="M230.6,106.6c0,0.2-0.1,0.4-0.2,0.5c-0.1,0.1-0.2,0.1-0.4,0.1h-4.8c0,0.4,0,0.8,0.1,1.1
				c0.1,0.3,0.2,0.6,0.4,0.8c0.2,0.2,0.4,0.4,0.7,0.5c0.3,0.1,0.7,0.2,1.1,0.2c0.3,0,0.7,0,0.9-0.1c0.3-0.1,0.5-0.1,0.7-0.2
				s0.4-0.1,0.5-0.2c0.1-0.1,0.2-0.1,0.3-0.1c0,0,0.1,0,0.1,0c0,0,0.1,0,0.1,0.1c0,0,0,0.1,0,0.2c0,0.1,0,0.2,0,0.2
				c0,0.1,0,0.1,0,0.2c0,0.1,0,0.1,0,0.1c0,0,0,0.1,0,0.1c0,0,0,0.1-0.1,0.1c0,0-0.1,0.1-0.3,0.1c-0.1,0.1-0.3,0.1-0.6,0.2
				s-0.5,0.1-0.8,0.2s-0.6,0.1-1,0.1c-0.6,0-1.1-0.1-1.6-0.3s-0.8-0.4-1.1-0.7s-0.5-0.7-0.7-1.2c-0.2-0.5-0.2-1.1-0.2-1.7
				c0-0.6,0.1-1.2,0.2-1.7c0.2-0.5,0.4-0.9,0.7-1.3c0.3-0.3,0.7-0.6,1.1-0.8c0.4-0.2,0.9-0.3,1.5-0.3c0.6,0,1.1,0.1,1.5,0.3
				c0.4,0.2,0.7,0.4,1,0.7c0.3,0.3,0.5,0.7,0.6,1.1s0.2,0.9,0.2,1.3V106.6z M229.2,106.2c0-0.7-0.1-1.3-0.5-1.7
				c-0.3-0.4-0.8-0.6-1.5-0.6c-0.3,0-0.6,0.1-0.9,0.2s-0.5,0.3-0.6,0.5s-0.3,0.4-0.4,0.7c-0.1,0.3-0.1,0.6-0.2,0.9H229.2z"/>
			<path class="st1" d="M238.9,110.6c0,0,0,0.1,0,0.1c0,0-0.1,0.1-0.1,0.1s-0.1,0-0.2,0s-0.2,0-0.3,0c-0.1,0-0.2,0-0.3,0
				s-0.2,0-0.2,0s-0.1,0-0.1-0.1c0,0,0-0.1,0-0.1v-4.3c0-0.4,0-0.8-0.1-1s-0.2-0.5-0.3-0.7s-0.3-0.3-0.5-0.4s-0.4-0.1-0.7-0.1
				c-0.3,0-0.7,0.1-1,0.4c-0.3,0.2-0.7,0.6-1.1,1.1v5.1c0,0,0,0.1,0,0.1c0,0-0.1,0.1-0.1,0.1s-0.1,0-0.2,0s-0.2,0-0.3,0
				c-0.1,0-0.2,0-0.3,0s-0.2,0-0.2,0s-0.1,0-0.1-0.1c0,0,0-0.1,0-0.1V99.7c0,0,0-0.1,0-0.1c0,0,0.1-0.1,0.1-0.1s0.1,0,0.2,0
				s0.2,0,0.3,0c0.1,0,0.2,0,0.3,0s0.2,0,0.2,0s0.1,0,0.1,0.1c0,0,0,0.1,0,0.1v4.4c0.4-0.4,0.8-0.7,1.2-0.9c0.4-0.2,0.8-0.3,1.2-0.3
				c0.5,0,0.9,0.1,1.2,0.2c0.3,0.2,0.6,0.4,0.8,0.7c0.2,0.3,0.4,0.6,0.4,1c0.1,0.4,0.1,0.8,0.1,1.3V110.6z"/>
			<path class="st1" d="M245.7,103.8c0,0.1,0,0.2,0,0.3c0,0.1,0,0.1,0,0.2c0,0,0,0.1-0.1,0.1s-0.1,0-0.1,0c0,0-0.1,0-0.2,0
				s-0.1,0-0.2-0.1s-0.2,0-0.3-0.1s-0.2,0-0.3,0c-0.1,0-0.3,0-0.4,0.1c-0.1,0.1-0.3,0.1-0.4,0.3c-0.1,0.1-0.3,0.3-0.5,0.5
				c-0.2,0.2-0.3,0.5-0.5,0.8v4.8c0,0,0,0.1,0,0.1c0,0-0.1,0.1-0.1,0.1s-0.1,0-0.2,0s-0.2,0-0.3,0c-0.1,0-0.2,0-0.3,0s-0.2,0-0.2,0
				s-0.1,0-0.1-0.1c0,0,0-0.1,0-0.1v-7.3c0,0,0-0.1,0-0.1c0,0,0-0.1,0.1-0.1s0.1,0,0.2,0c0.1,0,0.2,0,0.3,0c0.1,0,0.2,0,0.3,0
				c0.1,0,0.1,0,0.2,0c0,0,0.1,0.1,0.1,0.1c0,0,0,0.1,0,0.1v1.1c0.2-0.3,0.4-0.5,0.6-0.7c0.2-0.2,0.3-0.3,0.5-0.4
				c0.2-0.1,0.3-0.2,0.5-0.2c0.2,0,0.3-0.1,0.5-0.1c0.1,0,0.2,0,0.2,0c0.1,0,0.2,0,0.3,0c0.1,0,0.2,0,0.3,0.1c0.1,0,0.1,0.1,0.2,0.1
				c0,0,0.1,0.1,0.1,0.1s0,0.1,0,0.1s0,0.1,0,0.2C245.7,103.5,245.7,103.6,245.7,103.8z"/>
			<path class="st1" d="M257.5,103.3c0,0,0,0.1,0,0.1c0,0.1,0,0.1-0.1,0.2l-2.2,7c0,0.1,0,0.1-0.1,0.1c0,0-0.1,0.1-0.1,0.1
				s-0.1,0-0.3,0c-0.1,0-0.2,0-0.4,0c-0.2,0-0.3,0-0.4,0c-0.1,0-0.2,0-0.3,0c-0.1,0-0.1-0.1-0.2-0.1c0,0-0.1-0.1-0.1-0.1l-1.5-5.3
				l0-0.1l0,0.1l-1.4,5.3c0,0.1,0,0.1-0.1,0.1c0,0-0.1,0.1-0.2,0.1s-0.2,0-0.3,0c-0.1,0-0.2,0-0.4,0c-0.2,0-0.3,0-0.4,0
				c-0.1,0-0.2,0-0.3,0c-0.1,0-0.1-0.1-0.2-0.1c0,0-0.1-0.1-0.1-0.1l-2.1-7c0-0.1,0-0.1-0.1-0.2c0-0.1,0-0.1,0-0.1c0,0,0-0.1,0-0.1
				c0,0,0.1-0.1,0.1-0.1c0.1,0,0.1,0,0.2,0c0.1,0,0.2,0,0.3,0c0.2,0,0.3,0,0.4,0c0.1,0,0.2,0,0.2,0s0.1,0,0.1,0.1c0,0,0,0.1,0.1,0.1
				l1.8,6l0,0.1l0-0.1l1.6-6c0,0,0-0.1,0.1-0.1c0,0,0.1-0.1,0.1-0.1c0,0,0.1,0,0.2,0c0.1,0,0.2,0,0.3,0c0.1,0,0.2,0,0.3,0
				c0.1,0,0.2,0,0.2,0s0.1,0,0.1,0.1c0,0,0,0.1,0,0.1l1.8,6.1l0,0.1l0-0.1l1.7-6c0,0,0-0.1,0.1-0.1c0,0,0.1-0.1,0.1-0.1s0.1,0,0.2,0
				c0.1,0,0.2,0,0.3,0c0.1,0,0.2,0,0.3,0c0.1,0,0.1,0,0.2,0c0,0,0.1,0,0.1,0.1C257.5,103.2,257.5,103.2,257.5,103.3z"/>
			<path class="st1" d="M265.3,106.6c0,0.2-0.1,0.4-0.2,0.5c-0.1,0.1-0.2,0.1-0.4,0.1H260c0,0.4,0,0.8,0.1,1.1
				c0.1,0.3,0.2,0.6,0.4,0.8c0.2,0.2,0.4,0.4,0.7,0.5c0.3,0.1,0.7,0.2,1.1,0.2c0.3,0,0.7,0,0.9-0.1c0.3-0.1,0.5-0.1,0.7-0.2
				s0.4-0.1,0.5-0.2c0.1-0.1,0.2-0.1,0.3-0.1c0,0,0.1,0,0.1,0c0,0,0.1,0,0.1,0.1c0,0,0,0.1,0,0.2c0,0.1,0,0.2,0,0.2
				c0,0.1,0,0.1,0,0.2c0,0.1,0,0.1,0,0.1c0,0,0,0.1,0,0.1c0,0,0,0.1-0.1,0.1c0,0-0.1,0.1-0.3,0.1c-0.1,0.1-0.3,0.1-0.6,0.2
				s-0.5,0.1-0.8,0.2s-0.6,0.1-1,0.1c-0.6,0-1.1-0.1-1.6-0.3s-0.8-0.4-1.1-0.7s-0.5-0.7-0.7-1.2c-0.2-0.5-0.2-1.1-0.2-1.7
				c0-0.6,0.1-1.2,0.2-1.7c0.2-0.5,0.4-0.9,0.7-1.3c0.3-0.3,0.7-0.6,1.1-0.8c0.4-0.2,0.9-0.3,1.5-0.3c0.6,0,1.1,0.1,1.5,0.3
				c0.4,0.2,0.7,0.4,1,0.7c0.3,0.3,0.5,0.7,0.6,1.1s0.2,0.9,0.2,1.3V106.6z M264,106.2c0-0.7-0.1-1.3-0.5-1.7
				c-0.3-0.4-0.8-0.6-1.5-0.6c-0.3,0-0.6,0.1-0.9,0.2s-0.5,0.3-0.6,0.5s-0.3,0.4-0.4,0.7c-0.1,0.3-0.1,0.6-0.2,0.9H264z"/>
			<path class="st1" d="M271.7,103.8c0,0.1,0,0.2,0,0.3c0,0.1,0,0.1,0,0.2c0,0,0,0.1-0.1,0.1s-0.1,0-0.1,0c0,0-0.1,0-0.2,0
				s-0.1,0-0.2-0.1s-0.2,0-0.3-0.1s-0.2,0-0.3,0c-0.1,0-0.3,0-0.4,0.1c-0.1,0.1-0.3,0.1-0.4,0.3c-0.1,0.1-0.3,0.3-0.5,0.5
				c-0.2,0.2-0.3,0.5-0.5,0.8v4.8c0,0,0,0.1,0,0.1c0,0-0.1,0.1-0.1,0.1s-0.1,0-0.2,0s-0.2,0-0.3,0c-0.1,0-0.2,0-0.3,0s-0.2,0-0.2,0
				s-0.1,0-0.1-0.1c0,0,0-0.1,0-0.1v-7.3c0,0,0-0.1,0-0.1c0,0,0-0.1,0.1-0.1s0.1,0,0.2,0c0.1,0,0.2,0,0.3,0c0.1,0,0.2,0,0.3,0
				c0.1,0,0.1,0,0.2,0c0,0,0.1,0.1,0.1,0.1c0,0,0,0.1,0,0.1v1.1c0.2-0.3,0.4-0.5,0.6-0.7c0.2-0.2,0.3-0.3,0.5-0.4
				c0.2-0.1,0.3-0.2,0.5-0.2c0.2,0,0.3-0.1,0.5-0.1c0.1,0,0.2,0,0.2,0c0.1,0,0.2,0,0.3,0c0.1,0,0.2,0,0.3,0.1c0.1,0,0.1,0.1,0.2,0.1
				c0,0,0.1,0.1,0.1,0.1s0,0.1,0,0.1s0,0.1,0,0.2C271.7,103.5,271.7,103.6,271.7,103.8z"/>
			<path class="st1" d="M277,110.1c0,0.2,0,0.3,0,0.4c0,0.1-0.1,0.2-0.1,0.2c0,0-0.1,0.1-0.2,0.1s-0.2,0.1-0.3,0.1
				c-0.1,0-0.2,0-0.4,0.1c-0.1,0-0.2,0-0.4,0c-0.4,0-0.7-0.1-1-0.2c-0.3-0.1-0.5-0.3-0.7-0.5c-0.2-0.2-0.3-0.5-0.4-0.8
				c-0.1-0.3-0.1-0.7-0.1-1.1v-4.3h-1c-0.1,0-0.1,0-0.2-0.1s-0.1-0.2-0.1-0.4c0-0.1,0-0.2,0-0.3s0-0.1,0.1-0.2c0,0,0-0.1,0.1-0.1
				c0,0,0.1,0,0.1,0h1v-1.7c0,0,0-0.1,0-0.1c0,0,0.1-0.1,0.1-0.1s0.1,0,0.2-0.1s0.2,0,0.3,0c0.1,0,0.2,0,0.3,0s0.2,0,0.2,0.1
				s0.1,0.1,0.1,0.1s0,0.1,0,0.1v1.7h1.9c0,0,0.1,0,0.1,0c0,0,0.1,0.1,0.1,0.1c0,0,0,0.1,0.1,0.2c0,0.1,0,0.2,0,0.3
				c0,0.2,0,0.3-0.1,0.4s-0.1,0.1-0.2,0.1h-1.9v4.1c0,0.5,0.1,0.9,0.2,1.1c0.1,0.3,0.4,0.4,0.8,0.4c0.1,0,0.2,0,0.3,0
				s0.2-0.1,0.3-0.1c0.1,0,0.1-0.1,0.2-0.1c0.1,0,0.1,0,0.1,0c0,0,0.1,0,0.1,0s0,0,0.1,0.1s0,0.1,0,0.2C277,109.9,277,110,277,110.1
				z"/>
		</g>
	</g>
</g>
</svg>
