<?xml version="1.0" encoding="UTF-8" standalone="no"?>
<!-- Created with Inkscape (http://www.inkscape.org/) -->
<svg
   xmlns:svg="http://www.w3.org/2000/svg"
   xmlns="http://www.w3.org/2000/svg"
   version="1.0"
   width="300"
   height="51.462738"
   id="svg2">
  <defs
     id="defs5" />
  <path
     d="M 71.652157,50.835051 C 71.652157,50.435 73.033293,49.857256 74.721349,49.551176 C 88.342371,47.081396 97.806261,35.643525 93.35346,27.032765 C 91.663252,23.764273 88.492336,21.714156 81.849255,19.594868 C 73.23815,16.847737 70.616525,15.265628 68.53319,11.558833 C 65.679936,6.482154 64.10353,5.729157 56.328702,5.729157 L 49.553979,5.729157 L 49.553979,9.034826 L 49.553979,12.340495 L 56.715425,12.104017 C 61.910705,11.932464 63.820696,11.586659 63.672259,10.844476 C 63.129342,8.129891 65.346147,10.346696 67.559902,14.732119 C 69.900115,19.368054 70.006771,21.61984 67.712103,17.945494 C 66.09288,15.352704 61.666124,13.913667 55.309424,13.913667 L 49.553979,13.913667 L 49.553979,27.008884 L 49.553979,40.104101 L 56.946326,40.104101 C 65.470081,40.104101 68.261764,39.158941 72.675221,34.778877 C 74.363276,33.103595 75.744412,32.191236 75.744412,32.751415 C 75.744412,33.311593 74.363276,36.336356 72.675221,39.473109 C 70.394519,43.71112 69.53884,44.735026 69.344493,43.45865 C 69.086757,41.765973 68.780383,41.741003 48.269378,41.741003 C 34.939294,41.741003 27.455801,41.44673 27.455801,40.922552 C 27.455801,40.472404 28.192406,40.104101 29.092703,40.104101 C 30.662964,40.104101 30.729095,39.562645 30.717072,26.804271 C 30.703411,12.306915 30.432374,11.95498 27.09275,22.098178 C 23.29256,33.640225 20.499243,40.674909 19.680516,40.765137 C 19.230367,40.814746 16.171887,35.069687 12.883892,27.998339 C 9.5958975,20.926992 6.5573983,14.791456 6.1316713,14.363816 C 5.6450973,13.875054 5.3576227,18.510525 5.3576227,26.845194 C 5.3576227,39.424084 5.439098,40.104101 6.9462223,40.104101 C 7.8199525,40.104101 8.7624455,40.472404 9.0406525,40.922552 C 9.3568195,41.434121 7.6689655,41.741003 4.5391717,41.741003 C 1.4093778,41.741003 -0.2784758,41.434121 0.037690899,40.922552 C 0.3158977,40.472404 1.2658635,40.104101 2.1487261,40.104101 C 3.6988995,40.104101 3.7463467,39.521877 3.5327129,23.121242 C 3.3327008,7.766346 3.1801131,6.160077 1.940923,6.364701 C 1.1871083,6.489176 0.3366905,6.212949 0.051105599,5.750862 C -0.2799239,5.215245 1.1610713,4.910706 4.0264901,4.910706 C 7.8118195,4.910706 8.6036315,5.170677 9.0439715,6.558066 C 9.3315395,7.464114 12.147893,13.627193 15.302534,20.253798 C 19.588626,29.257113 21.219946,31.977489 21.757177,31.017509 C 22.15259,30.310946 24.56344,23.963716 27.114623,16.912552 L 31.753137,4.092255 L 35.694549,4.092255 C 40.05034,4.092255 41.793487,5.386131 38.538363,6.203115 L 36.458762,6.725061 L 36.458762,23.414581 L 36.458762,40.104101 L 40.141792,40.104101 L 43.824821,40.104101 L 43.824821,22.916629 C 43.824821,8.18451 43.649439,5.729157 42.597145,5.729157 C 41.921923,5.729157 41.369468,5.360854 41.369468,4.910706 C 41.369468,4.40375 45.763729,4.092255 52.915348,4.092255 C 62.842098,4.092255 64.395163,3.920092 63.990124,2.864578 C 63.167088,0.71978 65.011982,1.543583 66.28126,3.887642 C 68.751762,8.450084 68.820677,8.486233 70.963318,6.343592 C 73.38984,3.917069 77.852947,3.122814 84.170456,3.993247 C 89.205198,4.686941 89.014516,4.859854 87.445872,1.023063 C 87.215822,0.460378 87.34323,0.007942 87.728999,0.01765 C 88.971277,0.04891 96.348762,11.819848 95.337377,12.156977 C 94.814886,12.331141 93.495658,11.511948 92.405768,10.336548 C 89.501339,7.204249 85.88931,5.601 80.72702,5.152768 C 75.306541,4.682118 71.652157,5.854466 71.652157,8.064037 C 71.652157,10.326298 72.976293,11.129619 80.690738,13.547523 C 89.812538,16.406529 93.200148,18.381755 95.256408,22.04038 C 100.22932,30.888492 97.163301,40.705803 87.704315,46.221951 C 85.852921,47.301616 81.583275,48.944902 78.216216,49.873697 C 71.091485,51.839035 71.652157,51.756921 71.652157,50.835051 z M 99.274881,41.163395 C 101.11628,40.808726 101.11639,40.807597 101.11639,23.26893 L 101.11639,5.729157 L 99.070271,5.729157 C 97.944901,5.729157 97.02414,5.360854 97.02414,4.910706 C 97.02414,4.433276 99.752311,4.092255 103.57175,4.092255 C 107.39119,4.092255 110.11936,4.433276 110.11936,4.910706 C 110.11936,5.360854 109.36052,5.729157 108.43304,5.729157 C 106.9849,5.729157 106.78261,6.162625 107.00075,8.798348 L 107.25478,11.86754 L 114.41622,12.133756 L 121.57767,12.399972 L 121.57767,9.064564 C 121.57767,6.645392 121.24043,5.729157 120.34999,5.729157 C 119.67477,5.729157 119.12232,5.360854 119.12232,4.910706 C 119.12232,4.449016 121.44126,4.092255 124.44225,4.092255 C 127.44324,4.092255 129.76218,4.449016 129.76218,4.910706 C 129.76218,5.360854 129.20973,5.729157 128.5345,5.729157 C 127.48221,5.729157 127.30683,8.18451 127.30683,22.916629 C 127.30683,37.335889 127.49677,40.104101 128.4862,40.104101 C 129.13485,40.104101 129.8932,40.472404 130.17141,40.922552 C 130.49195,41.441209 128.36112,41.741003 124.35414,41.741003 C 120.87644,41.741003 118.30728,41.464776 118.64489,41.127165 C 118.9825,40.789554 119.68841,40.513327 120.21358,40.513327 C 120.8927,40.513327 121.23339,36.67256 121.39333,27.213497 L 121.61822,13.913667 L 114.23188,13.913667 L 106.84555,13.913667 L 106.84555,27.361186 C 106.84555,40.656032 106.86645,40.812731 108.68707,41.163395 C 109.6999,41.358475 107.58216,41.518087 103.98097,41.518087 C 100.37979,41.518087 98.262051,41.358475 99.274881,41.163395 z M 147.55263,40.274675 C 142.40044,38.426774 136.10786,32.891518 133.84476,28.216569 C 131.38625,23.137974 131.84772,17.280848 135.13964,11.781203 C 136.45844,9.577948 137.53747,7.439842 137.53747,7.029855 C 137.53747,6.619869 136.24841,5.819207 134.67289,5.250607 C 131.88776,4.245461 131.97395,4.21506 137.78064,4.154521 L 143.75299,4.092255 L 141.3083,7.161446 C 139.96371,8.849502 138.42155,12.011374 137.88125,14.187831 C 135.39032,24.22189 143.21453,37.924786 152.49454,39.780787 L 155.13416,40.308714 L 155.13416,22.666634 L 155.13416,5.024554 L 153.29265,4.669863 C 152.27981,4.474783 154.02925,4.276215 157.18029,4.228601 C 161.43189,4.164358 162.54006,4.357181 161.47716,4.976263 C 160.1852,5.728761 160.04487,7.490446 160.04487,22.957298 C 160.04487,33.842866 160.34373,40.104101 160.86332,40.104101 C 161.31347,40.104101 161.68177,40.472404 161.68177,40.922552 C 161.68177,42.250824 151.79889,41.797655 147.55263,40.274675 z M 179.63172,40.915397 C 174.42094,40.033123 167.88723,36.537536 165.51684,33.36381 C 159.75489,25.649093 161.14677,15.405438 168.81947,9.05788 C 171.7797,6.608905 180.50612,3.273804 183.95372,3.273804 C 185.0737,3.273804 185.44294,2.885413 185.12088,2.046127 C 184.8489,1.337373 185.10594,0.818451 185.72898,0.818451 C 186.81943,0.818451 191.69761,11.179525 190.95623,11.920916 C 190.73601,12.141137 189.59561,11.062412 188.42202,9.523748 C 185.50537,5.699834 182.7275,4.85319 177.81122,6.289766 C 172.36422,7.881421 167.69879,12.64914 167.00483,17.333089 C 165.22682,29.333935 174.28516,40.298664 185.21224,39.372375 C 185.96597,39.308482 186.2353,36.82271 186.2353,29.930387 C 186.2353,20.851759 186.18085,20.56739 184.39379,20.313587 C 183.38095,20.169742 182.55227,19.683747 182.55227,19.233599 C 182.55227,18.778933 185.3716,18.3089 188.89527,18.176108 C 194.16809,17.977398 195.23826,18.150006 195.23826,19.199172 C 195.23826,19.999782 194.49009,20.461276 193.19214,20.461276 L 191.14601,20.461276 L 191.14601,29.873463 L 191.14601,39.28565 L 193.19214,39.28565 C 194.46529,39.28565 195.23826,39.749439 195.23826,40.513327 C 195.23826,41.500557 194.0761,41.722149 189.30449,41.644738 C 186.04092,41.591792 181.68818,41.263588 179.63172,40.915397 z M 212.54057,40.45326 C 202.84697,37.845667 197.24593,31.316486 197.4306,22.839435 C 197.64946,12.792645 205.33243,5.145367 216.78422,3.575725 C 219.44202,3.211433 220.58474,2.641261 220.87402,1.535089 C 221.0948,0.69079 221.63009,-3.5527137e-15 222.06355,-3.5527137e-15 C 222.70181,-3.5527137e-15 225.22147,4.995488 227.73976,11.253702 C 227.96704,11.818516 227.56232,12.276765 226.8362,12.276765 C 226.11281,12.276765 225.52095,11.936793 225.52095,11.521272 C 225.52095,11.105751 224.38771,9.632539 223.00264,8.247468 C 219.92835,5.173183 216.23588,4.927291 211.02499,7.449842 C 204.15839,10.773906 201.6513,16.429606 203.37143,24.715396 C 205.05162,32.808845 211.91997,39.28565 218.82252,39.28565 L 221.4287,39.28565 L 221.4287,29.873463 C 221.4287,21.00691 221.33381,20.461276 219.7918,20.461276 C 218.88241,20.461276 218.15489,19.915642 218.15489,19.233599 C 218.15489,18.23862 219.47351,18.005923 225.11173,18.005923 C 230.74995,18.005923 232.06856,18.23862 232.06856,19.233599 C 232.06856,19.997487 231.29558,20.461276 230.02243,20.461276 L 227.97631,20.461276 L 227.97631,29.873463 L 227.97631,39.28565 L 230.02243,39.28565 C 231.29558,39.28565 232.06856,39.749439 232.06856,40.513327 C 232.06856,41.519995 230.70568,41.731307 224.49789,41.68714 C 220.33402,41.657515 214.95322,41.102269 212.54057,40.45326 z M 233.29266,40.916771 C 232.76359,40.060707 233.32799,39.776497 237.29528,38.901231 L 239.65742,38.380094 L 237.54331,36.172906 C 230.65184,28.978021 231.42501,19.350964 239.53802,11.33628 C 246.65513,4.305415 250.15403,3.273804 266.88343,3.273804 C 274.64885,3.273804 280.35717,3.596434 280.35717,4.035331 C 280.35717,4.454171 279.52849,4.914549 278.51566,5.058395 C 277.00652,5.272726 276.67414,5.836962 276.67414,8.18451 L 276.67414,11.049089 L 283.83559,11.285566 L 290.99704,11.522044 L 290.99704,8.180496 C 290.99704,5.526536 290.71979,4.888435 289.64965,5.07944 C 288.9086,5.211711 288.1413,4.859553 287.94455,4.296868 C 287.50021,3.026104 298.80906,2.827419 299.59077,4.092255 C 299.86898,4.542403 299.52242,4.910706 298.82063,4.910706 C 297.70452,4.910706 297.54465,7.115472 297.54465,22.507403 C 297.54465,37.603278 297.71912,40.104101 298.77232,40.104101 C 299.44754,40.104101 300,40.472404 300,40.922552 C 300,41.395435 297.40823,41.741003 293.86162,41.741003 C 290.315,41.741003 287.72323,41.395435 287.72323,40.922552 C 287.72323,40.472404 288.45984,40.104101 289.36013,40.104101 C 290.92884,40.104101 290.99704,39.558467 290.99704,27.008884 L 290.99704,13.913667 L 283.63098,13.913667 L 276.26492,13.913667 L 276.26492,27.008884 C 276.26492,39.558467 276.33312,40.104101 277.90182,40.104101 C 278.80212,40.104101 279.53872,40.472404 279.53872,40.922552 C 279.53872,41.400482 276.79445,41.741003 272.94281,41.741003 C 268.75395,41.741003 266.5315,41.442325 266.85273,40.922552 C 267.13094,40.472404 268.08076,40.104101 268.96343,40.104101 C 270.51413,40.104101 270.56085,39.518121 270.34743,22.748392 L 270.12654,5.392684 L 268.08041,4.902562 C 266.95504,4.632995 265.2056,4.567485 264.19277,4.756986 C 262.35322,5.101162 262.35125,5.119749 262.35125,22.098134 C 262.35125,38.406415 262.41754,39.112071 263.98815,39.522795 C 264.88845,39.758228 265.62505,40.353639 265.62505,40.845929 C 265.62505,41.419137 263.27056,41.741003 259.07745,41.741003 C 254.88433,41.741003 252.52984,41.419137 252.52984,40.845929 C 252.52984,40.353639 253.26644,39.758228 254.16674,39.522795 C 255.71415,39.118138 255.80364,38.406415 255.80364,26.504202 L 255.80364,13.913667 L 248.98671,13.913667 L 242.16978,13.913667 L 240.44729,17.80131 C 236.97278,25.643248 237.2687,30.571231 241.60071,37.008553 C 243.11024,39.251723 244.34533,41.234184 244.34533,41.414023 C 244.34533,42.152455 233.76209,41.676323 233.29266,40.916771 z M 255.80364,8.129356 C 255.80364,5.061566 255.65917,4.843074 253.96213,5.344355 C 251.35733,6.11377 245.98223,9.688547 245.98223,10.651475 C 245.98223,11.095237 248.19205,11.458314 250.89294,11.458314 L 255.80364,11.458314 L 255.80364,8.129356 z"
     id="path2384"
     style="fill:#000000" />
</svg>
