<svg width="300" height="51" xmlns="http://www.w3.org/2000/svg" xmlns:xlink="http://www.w3.org/1999/xlink" xml:space="preserve" overflow="hidden"><defs><clipPath id="clip0"><rect x="0" y="0" width="300" height="51"/></clipPath></defs><g clip-path="url(#clip0)"><path d="M71.6522 50.8351C71.6522 50.435 73.0333 49.8573 74.7214 49.5512 88.3424 47.0814 97.8063 35.6435 93.3535 27.0328 91.6633 23.7643 88.4923 21.7142 81.8493 19.5949 73.2382 16.8477 70.6165 15.2656 68.5332 11.5588 65.6799 6.48215 64.1035 5.72916 56.3287 5.72916L49.554 5.72916 49.554 9.03483 49.554 12.3405 56.7154 12.104C61.9107 11.9325 63.8207 11.5867 63.6723 10.8445 63.1293 8.12989 65.3461 10.3467 67.5599 14.7321 69.9001 19.3681 70.0068 21.6198 67.7121 17.9455 66.0929 15.3527 61.6661 13.9137 55.3094 13.9137L49.554 13.9137 49.554 27.0089 49.554 40.1041 56.9463 40.1041C65.4701 40.1041 68.2618 39.1589 72.6752 34.7789 74.3633 33.1036 75.7444 32.1912 75.7444 32.7514 75.7444 33.3116 74.3633 36.3364 72.6752 39.4731 70.3945 43.7111 69.5388 44.735 69.3445 43.4586 69.0868 41.766 68.7804 41.741 48.2694 41.741 34.9393 41.741 27.4558 41.4467 27.4558 40.9226 27.4558 40.4724 28.1924 40.1041 29.0927 40.1041 30.663 40.1041 30.7291 39.5626 30.7171 26.8043 30.7034 12.3069 30.4324 11.955 27.0928 22.0982 23.2926 33.6402 20.4992 40.6749 19.6805 40.7651 19.2304 40.8147 16.1719 35.0697 12.8839 27.9983 9.5959 20.927 6.5574 14.7915 6.13167 14.3638 5.6451 13.8751 5.35762 18.5105 5.35762 26.8452 5.35762 39.4241 5.4391 40.1041 6.94622 40.1041 7.81995 40.1041 8.76245 40.4724 9.04065 40.9226 9.35682 41.4341 7.66897 41.741 4.53917 41.741 1.40938 41.741-0.278476 41.4341 0.0376909 40.9226 0.315898 40.4724 1.26586 40.1041 2.14873 40.1041 3.6989 40.1041 3.74635 39.5219 3.53271 23.1212 3.3327 7.76635 3.18011 6.16008 1.94092 6.3647 1.18711 6.48918 0.33669 6.21295 0.0511056 5.75086-0.279924 5.21524 1.16107 4.91071 4.02649 4.91071 7.81182 4.91071 8.60363 5.17068 9.04397 6.55807 9.33154 7.46411 12.1479 13.6272 15.3025 20.2538 19.5886 29.2571 21.2199 31.9775 21.7572 31.0175 22.1526 30.3109 24.5634 23.9637 27.1146 16.9126L31.7531 4.09226 35.6945 4.09226C40.0503 4.09226 41.7935 5.38613 38.5384 6.20311L36.4588 6.72506 36.4588 23.4146 36.4588 40.1041 40.1418 40.1041 43.8248 40.1041 43.8248 22.9166C43.8248 8.18451 43.6494 5.72916 42.5971 5.72916 41.9219 5.72916 41.3695 5.36085 41.3695 4.91071 41.3695 4.40375 45.7637 4.09226 52.9153 4.09226 62.8421 4.09226 64.3952 3.92009 63.9901 2.86458 63.1671 0.71978 65.012 1.54358 66.2813 3.88764 68.7518 8.45008 68.8207 8.48623 70.9633 6.34359 73.3898 3.91707 77.8529 3.12281 84.1705 3.99325 89.2052 4.68694 89.0145 4.85985 87.4459 1.02306 87.2158 0.460378 87.3432 0.007942 87.729 0.01765 88.9713 0.04891 96.3488 11.8198 95.3374 12.157 94.8149 12.3311 93.4957 11.5119 92.4058 10.3365 89.5013 7.20425 85.8893 5.601 80.727 5.15277 75.3065 4.68212 71.6522 5.85447 71.6522 8.06404 71.6522 10.3263 72.9763 11.1296 80.6907 13.5475 89.8125 16.4065 93.2001 18.3818 95.2564 22.0404 100.229 30.8885 97.1633 40.7058 87.7043 46.222 85.8529 47.3016 81.5833 48.9449 78.2162 49.8737 71.0915 51.839 71.6522 51.7569 71.6522 50.8351ZM99.2749 41.1634C101.116 40.8087 101.116 40.8076 101.116 23.2689L101.116 5.72916 99.0703 5.72916C97.9449 5.72916 97.0241 5.36085 97.0241 4.91071 97.0241 4.43328 99.7523 4.09226 103.572 4.09226 107.391 4.09226 110.119 4.43328 110.119 4.91071 110.119 5.36085 109.361 5.72916 108.433 5.72916 106.985 5.72916 106.783 6.16262 107.001 8.79835L107.255 11.8675 114.416 12.1338 121.578 12.4 121.578 9.06456C121.578 6.64539 121.24 5.72916 120.35 5.72916 119.675 5.72916 119.122 5.36085 119.122 4.91071 119.122 4.44902 121.441 4.09226 124.442 4.09226 127.443 4.09226 129.762 4.44902 129.762 4.91071 129.762 5.36085 129.21 5.72916 128.535 5.72916 127.482 5.72916 127.307 8.18451 127.307 22.9166 127.307 37.3359 127.497 40.1041 128.486 40.1041 129.135 40.1041 129.893 40.4724 130.171 40.9226 130.492 41.4412 128.361 41.741 124.354 41.741 120.876 41.741 118.307 41.4648 118.645 41.1272 118.982 40.7896 119.688 40.5133 120.214 40.5133 120.893 40.5133 121.233 36.6726 121.393 27.2135L121.618 13.9137 114.232 13.9137 106.846 13.9137 106.846 27.3612C106.846 40.656 106.866 40.8127 108.687 41.1634 109.7 41.3585 107.582 41.5181 103.981 41.5181 100.38 41.5181 98.2621 41.3585 99.2749 41.1634ZM147.553 40.2747C142.4 38.4268 136.108 32.8915 133.845 28.2166 131.386 23.138 131.848 17.2808 135.14 11.7812 136.458 9.57795 137.537 7.43984 137.537 7.02985 137.537 6.61987 136.248 5.81921 134.673 5.25061 131.888 4.24546 131.974 4.21506 137.781 4.15452L143.753 4.09226 141.308 7.16145C139.964 8.8495 138.422 12.0114 137.881 14.1878 135.39 24.2219 143.215 37.9248 152.495 39.7808L155.134 40.3087 155.134 22.6666 155.134 5.02455 153.293 4.66986C152.28 4.47478 154.029 4.27622 157.18 4.2286 161.432 4.16436 162.54 4.35718 161.477 4.97626 160.185 5.72876 160.045 7.49045 160.045 22.9573 160.045 33.8429 160.344 40.1041 160.863 40.1041 161.313 40.1041 161.682 40.4724 161.682 40.9226 161.682 42.2508 151.799 41.7977 147.553 40.2747ZM179.632 40.9154C174.421 40.0331 167.887 36.5375 165.517 33.3638 159.755 25.6491 161.147 15.4054 168.819 9.05788 171.78 6.6089 180.506 3.2738 183.954 3.2738 185.074 3.2738 185.443 2.88541 185.121 2.04613 184.849 1.33737 185.106 0.818451 185.729 0.818451 186.819 0.818451 191.698 11.1795 190.956 11.9209 190.736 12.1411 189.596 11.0624 188.422 9.52375 185.505 5.69983 182.727 4.85319 177.811 6.28977 172.364 7.88142 167.699 12.6491 167.005 17.3331 165.227 29.3339 174.285 40.2987 185.212 39.3724 185.966 39.3085 186.235 36.8227 186.235 29.9304 186.235 20.8518 186.181 20.5674 184.394 20.3136 183.381 20.1697 182.552 19.6837 182.552 19.2336 182.552 18.7789 185.372 18.3089 188.895 18.1761 194.168 17.9774 195.238 18.15 195.238 19.1992 195.238 19.9998 194.49 20.4613 193.192 20.4613L191.146 20.4613 191.146 29.8735 191.146 39.2856 193.192 39.2856C194.465 39.2856 195.238 39.7494 195.238 40.5133 195.238 41.5006 194.076 41.7221 189.304 41.6447 186.041 41.5918 181.688 41.2636 179.632 40.9154ZM212.541 40.4533C202.847 37.8457 197.246 31.3165 197.431 22.8394 197.649 12.7926 205.332 5.14537 216.784 3.57573 219.442 3.21143 220.585 2.64126 220.874 1.53509 221.095 0.69079 221.63-3.55271e-15 222.064-3.55271e-15 222.702-3.55271e-15 225.221 4.99549 227.74 11.2537 227.967 11.8185 227.562 12.2768 226.836 12.2768 226.113 12.2768 225.521 11.9368 225.521 11.5213 225.521 11.1058 224.388 9.63254 223.003 8.24747 219.928 5.17318 216.236 4.92729 211.025 7.44984 204.158 10.7739 201.651 16.4296 203.371 24.7154 205.052 32.8088 211.92 39.2856 218.823 39.2856L221.429 39.2856 221.429 29.8735C221.429 21.0069 221.334 20.4613 219.792 20.4613 218.882 20.4613 218.155 19.9156 218.155 19.2336 218.155 18.2386 219.474 18.0059 225.112 18.0059 230.75 18.0059 232.069 18.2386 232.069 19.2336 232.069 19.9975 231.296 20.4613 230.022 20.4613L227.976 20.4613 227.976 29.8735 227.976 39.2856 230.022 39.2856C231.296 39.2856 232.069 39.7494 232.069 40.5133 232.069 41.52 230.706 41.7313 224.498 41.6871 220.334 41.6575 214.953 41.1023 212.541 40.4533ZM233.293 40.9168C232.764 40.0607 233.328 39.7765 237.295 38.9012L239.657 38.3801 237.543 36.1729C230.652 28.978 231.425 19.351 239.538 11.3363 246.655 4.30542 250.154 3.2738 266.883 3.2738 274.649 3.2738 280.357 3.59643 280.357 4.03533 280.357 4.45417 279.529 4.91455 278.516 5.05839 277.007 5.27273 276.674 5.83696 276.674 8.18451L276.674 11.0491 283.836 11.2856 290.997 11.522 290.997 8.1805C290.997 5.52654 290.72 4.88843 289.65 5.07944 288.909 5.21171 288.141 4.85955 287.945 4.29687 287.5 3.0261 298.809 2.82742 299.591 4.09226 299.869 4.5424 299.522 4.91071 298.821 4.91071 297.705 4.91071 297.545 7.11547 297.545 22.5074 297.545 37.6033 297.719 40.1041 298.772 40.1041 299.448 40.1041 300 40.4724 300 40.9226 300 41.3954 297.408 41.741 293.862 41.741 290.315 41.741 287.723 41.3954 287.723 40.9226 287.723 40.4724 288.46 40.1041 289.36 40.1041 290.929 40.1041 290.997 39.5585 290.997 27.0089L290.997 13.9137 283.631 13.9137 276.265 13.9137 276.265 27.0089C276.265 39.5585 276.333 40.1041 277.902 40.1041 278.802 40.1041 279.539 40.4724 279.539 40.9226 279.539 41.4005 276.794 41.741 272.943 41.741 268.754 41.741 266.531 41.4423 266.853 40.9226 267.131 40.4724 268.081 40.1041 268.963 40.1041 270.514 40.1041 270.561 39.5181 270.347 22.7484L270.127 5.39268 268.08 4.90256C266.955 4.633 265.206 4.56748 264.193 4.75699 262.353 5.10116 262.351 5.11975 262.351 22.0981 262.351 38.4064 262.418 39.1121 263.988 39.5228 264.888 39.7582 265.625 40.3536 265.625 40.8459 265.625 41.4191 263.271 41.741 259.077 41.741 254.884 41.741 252.53 41.4191 252.53 40.8459 252.53 40.3536 253.266 39.7582 254.167 39.5228 255.714 39.1181 255.804 38.4064 255.804 26.5042L255.804 13.9137 248.987 13.9137 242.17 13.9137 240.447 17.8013C236.973 25.6432 237.269 30.5712 241.601 37.0086 243.11 39.2517 244.345 41.2342 244.345 41.414 244.345 42.1525 233.762 41.6763 233.293 40.9168ZM255.804 8.12936C255.804 5.06157 255.659 4.84307 253.962 5.34436 251.357 6.11377 245.982 9.68855 245.982 10.6515 245.982 11.0952 248.192 11.4583 250.893 11.4583L255.804 11.4583 255.804 8.12936Z" fill="#FFFFFF"/></g></svg>