<svg width="193" height="186" xmlns="http://www.w3.org/2000/svg" xmlns:xlink="http://www.w3.org/1999/xlink" xml:space="preserve" overflow="hidden"><g><path d="M282.883 170.762 282.613 170.072 256.468 101.839C255.936 100.502 254.994 99.3672 253.777 98.5984 251.284 97.0504 248.089 97.2221 245.776 99.0285 244.659 99.9357 243.849 101.165 243.455 102.549L225.802 156.559 154.319 156.559 136.665 102.549C136.283 101.157 135.471 99.922 134.345 99.0185 132.032 97.2121 128.837 97.0404 126.344 98.5884 125.13 99.3603 124.189 100.494 123.653 101.829L97.4582 170.032 97.1981 170.722C89.4662 190.924 96.0327 213.805 113.301 226.832L113.391 226.902 113.631 227.072 153.459 256.898 173.162 271.811 185.165 280.872C188.05 283.063 192.041 283.063 194.926 280.872L206.929 271.811 226.632 256.898 266.7 226.892 266.8 226.812C284.028 213.784 290.582 190.943 282.883 170.762Z" fill="#FFFFFF" transform="matrix(1 0 0 1.00003 -93.5088 -97.0536)"/></g></svg>