<svg width="193" height="186" xmlns="http://www.w3.org/2000/svg" xmlns:xlink="http://www.w3.org/1999/xlink" xml:space="preserve" overflow="hidden"><g><path d="M282.792 170.707 282.522 170.017 256.385 101.806C255.854 100.469 254.912 99.3352 253.696 98.5666 251.203 97.0192 248.009 97.1908 245.697 98.9966 244.58 99.9035 243.77 101.132 243.377 102.516L225.729 156.509 154.269 156.509 136.621 102.516C136.239 101.125 135.427 99.8898 134.302 98.9866 131.989 97.1808 128.796 97.0092 126.303 98.5566 125.089 99.3283 124.149 100.461 123.613 101.796L97.4268 169.977 97.1668 170.667C89.4374 190.863 96.0017 213.736 113.265 226.759L113.355 226.829 113.595 226.999 153.409 256.815 173.107 271.723 185.105 280.782C187.989 282.972 191.979 282.972 194.864 280.782L206.862 271.723 226.559 256.815 266.614 226.819 266.714 226.739C283.936 213.715 290.488 190.882 282.792 170.707Z" fill="#171321" transform="matrix(1.00001 0 0 1 -93.4604 -97.0427)"/></g></svg>