<?xml version="1.0" encoding="UTF-8" standalone="no"?>
<svg
   width="96"
   height="96"
   xml:space="preserve"
   overflow="hidden"
   version="1.1"
   id="svg3"
   sodipodi:docname="shrooms-fat.svg"
   inkscape:version="1.3.2 (091e20e, 2023-11-25, custom)"
   xmlns:inkscape="http://www.inkscape.org/namespaces/inkscape"
   xmlns:sodipodi="http://sodipodi.sourceforge.net/DTD/sodipodi-0.dtd"
   xmlns="http://www.w3.org/2000/svg"
   xmlns:svg="http://www.w3.org/2000/svg"><defs
   id="defs3" /><sodipodi:namedview
   id="namedview3"
   pagecolor="#141414"
   bordercolor="#000000"
   borderopacity="0.25"
   inkscape:showpageshadow="2"
   inkscape:pageopacity="0.0"
   inkscape:pagecheckerboard="0"
   inkscape:deskcolor="#d1d1d1"
   inkscape:zoom="8.65625"
   inkscape:cx="39.913357"
   inkscape:cy="52.274368"
   inkscape:window-width="1920"
   inkscape:window-height="1009"
   inkscape:window-x="-8"
   inkscape:window-y="-8"
   inkscape:window-maximized="1"
   inkscape:current-layer="svg3" />
    <g
   transform="translate(-734,-454)"
   id="g3"
   style="stroke:#ffffff;stroke-opacity:1">
        <path
   d="m 772,534 c 0.552,0 1,-0.448 1,-1 v -28 c 0,-4.971 -4.029,-9 -9,-9 -4.971,0 -9,4.029 -9,9 0,4.971 4.029,9 9,9 h 1 c 0.552,0 1,-0.448 1,-1 0,-0.552 -0.448,-1 -1,-1 h -1 c -3.866,0 -7,-3.134 -7,-7 0,-3.866 3.134,-7 7,-7 3.866,0 7,3.134 7,7 v 28 c 0,0.552 0.448,1 1,1 z"
   fill="#ffffff"
   id="path1"
   style="stroke:#ffffff;stroke-opacity:1" />
        <path
   d="m 759,475 c 0.004,7.184 5.832,13.004 13.016,13 1.47,-10e-4 2.93,-0.251 4.317,-0.74 0.526,-0.169 0.815,-0.733 0.646,-1.258 -0.169,-0.526 -0.733,-0.815 -1.258,-0.646 -0.018,0.006 -0.036,0.012 -0.054,0.019 -5.728,2.025 -12.013,-0.976 -14.038,-6.704 -2.025,-5.727 0.976,-12.012 6.704,-14.038 5.728,-2.025 12.013,0.977 14.038,6.704 0.416,1.177 0.629,2.415 0.629,3.663 v 66 c 0,0.552 0.448,1 1,1 0.552,0 1,-0.448 1,-1 v -66 c 0,-7.18 -5.82,-13 -13,-13 -7.18,0 -13,5.82 -13,13 z"
   fill="#ffffff"
   id="path2"
   style="stroke:#ffffff;stroke-opacity:1" />
        <path
   d="m 795,494 v 35 c 0,0.552 0.448,1 1,1 0.552,0 1,-0.448 1,-1 v -35 c 10e-4,-2.761 2.241,-4.999 5.002,-4.998 2.761,10e-4 4.999,2.241 4.998,5.002 -10e-4,2.118 -1.336,4.006 -3.333,4.712 -0.521,0.184 -0.794,0.755 -0.61,1.276 0.184,0.521 0.755,0.794 1.276,0.61 3.645,-1.288 5.555,-5.288 4.267,-8.933 -1.289,-3.645 -5.288,-5.555 -8.933,-4.267 -2.796,0.989 -4.666,3.632 -4.667,6.598 z"
   fill="#ffffff"
   id="path3"
   style="stroke:#ffffff;stroke-opacity:1" />
    </g>
</svg>
