<svg width="96" height="96" xmlns="http://www.w3.org/2000/svg" xmlns:xlink="http://www.w3.org/1999/xlink" xml:space="preserve" overflow="hidden"><g transform="translate(-550 -192)"><path d="M554 237 572 237 572 243 554 243Z" fill="#FFFFFF"/><path d="M624 237 642 237 642 243 624 243Z" fill="#FFFFFF"/><path d="M620 240C620 252.15 610.15 262 598 262 585.85 262 576 252.15 576 240 576 227.85 585.85 218 598 218 610.15 218 620 227.85 620 240Z" fill="#FFFFFF"/><path d="M595 266 601 266 601 284 595 284Z" fill="#FFFFFF"/><path d="M595 196 601 196 601 214 595 214Z" fill="#FFFFFF"/><path d="M581.687 260.454 568.959 273.181 564.717 268.939 577.445 256.211Z" fill="#FFFFFF"/><path d="M631.283 211.059 618.555 223.786 614.312 219.544 627.04 206.816Z" fill="#FFFFFF"/><path d="M581.785 219.445 577.542 223.688 564.815 210.96 569.057 206.718Z" fill="#FFFFFF"/><path d="M631.184 269.038 626.941 273.281 614.213 260.553 618.456 256.31Z" fill="#FFFFFF"/></g></svg>