<svg width="96" height="96" xmlns="http://www.w3.org/2000/svg" xmlns:xlink="http://www.w3.org/1999/xlink" xml:space="preserve" overflow="hidden"><g transform="translate(-879 -195)"><path d="M927.007 265.02C939.161 265.024 949.017 255.174 949.021 243.02 949.025 230.866 939.175 221.01 927.021 221.006 914.867 221.002 905.011 230.852 905.007 243.006 905.007 243.008 905.007 243.011 905.007 243.013 905.003 255.163 914.85 265.016 927 265.02 927.002 265.02 927.005 265.02 927.007 265.02ZM927.007 223.007C938.057 223.003 947.017 231.957 947.021 243.007 947.025 254.057 938.071 263.017 927.021 263.021 915.971 263.025 907.011 254.071 907.007 243.021 907.007 243.018 907.007 243.016 907.007 243.013 907.018 231.971 915.965 223.021 927.007 223.007Z"/><path d="M926.005 199 928.005 199 928.005 217 926.005 217Z"/><path d="M926.005 269 928.005 269 928.005 287 926.005 287Z"/><path d="M953.005 242 971.005 242 971.005 244 953.005 244Z"/><path d="M883.005 242 901.005 242 901.005 244 883.005 244Z"/><path d="M944.683 262.092 946.097 260.677 958.825 273.405 957.411 274.82Z"/><path d="M895.185 212.595 896.599 211.181 909.327 223.908 907.913 225.323Z"/><path d="M895.185 273.406 907.913 260.678 909.327 262.092 896.599 274.82Z"/><path d="M944.683 223.909 957.411 211.181 958.826 212.595 946.098 225.323Z"/></g></svg>