<svg width="96" height="96" xmlns="http://www.w3.org/2000/svg" xmlns:xlink="http://www.w3.org/1999/xlink" xml:space="preserve" overflow="hidden"><g transform="translate(-308 -132)"><path d="M370.551 150.969C369.505 150.497 368.38 150.222 367.234 150.159 366.28 150.074 365.369 150.577 364.934 151.431 363.783 153.731 364.149 161.588 363.35 163.005 363.089 163.667 362.443 164.095 361.732 164.08 361.606 164.08 361.477 164.071 361.343 164.059 360 163.933 360 160.933 360 160.933L360 140.933 358 140.933 358 142.933 354 142.933 354 140.933 352 140.933 352 160.94C352 161.013 351.983 163.935 350.657 164.059 350.523 164.071 350.393 164.08 350.268 164.08 349.557 164.095 348.911 163.667 348.65 163.005 347.85 161.588 348.217 153.732 347.066 151.431 346.631 150.577 345.72 150.074 344.766 150.159 343.62 150.222 342.495 150.497 341.449 150.969 326.566 157.443 316 173.748 316 192.853 315.962 201.336 318.129 209.683 322.288 217.076 322.501 217.358 323.595 218.742 324.63 218.742 332.18 218.742 344.957 211.071 347.258 204.167 349.559 197.263 348.528 183.552 351.094 179.621 352.005 178.158 353.38 177.044 355 176.456 355.645 176.218 356.355 176.218 357 176.456 358.622 177.043 359.999 178.159 360.911 179.623 363.476 183.554 362.445 197.266 364.746 204.169 367.047 211.072 379.82 218.742 387.37 218.742 388.404 218.742 389.499 217.358 389.712 217.076 393.87 209.682 396.037 201.336 396 192.853 396 173.748 385.433 157.443 370.551 150.969ZM354 144.933 358 144.933 358 146.933 354 146.933ZM354 148.933 358 148.933 358 150.933 354 150.933ZM354 152.933 358 152.933 358 154.933 354 154.933ZM354 156.933 358 156.933 358 158.933 354 158.933ZM388.042 215.966C387.813 216.264 387.54 216.526 387.232 216.741 380.049 216.647 368.56 209.3 366.639 203.535 365.639 200.524 365.302 195.928 364.979 191.483 364.573 185.883 364.222 181.042 362.579 178.528 361.312 176.485 359.319 174.998 357 174.366 356.342 174.214 355.658 174.214 355 174.366 352.682 174.998 350.689 176.485 349.422 178.527 347.781 181.041 347.43 185.88 347.022 191.483 346.7 195.927 346.366 200.523 345.363 203.534 343.44 209.3 331.95 216.647 324.768 216.741 324.46 216.526 324.187 216.264 323.958 215.966 320.019 208.902 317.967 200.941 318 192.853 318 175.206 327.744 159.111 342.2 152.822 343.006 152.444 343.876 152.22 344.764 152.159 345.192 152.159 345.237 152.248 345.276 152.326 345.718 153.211 345.906 156.275 346.031 158.302 346.217 161.349 346.341 162.987 346.906 163.988 347.527 165.276 348.836 166.091 350.266 166.08 350.451 166.08 350.643 166.069 350.841 166.05 351.947 165.935 352.901 165.225 353.331 164.2 353.697 163.351 353.922 162.449 354 161.528L354 160.933 358 160.933 358 161.533C358.079 162.448 358.303 163.345 358.664 164.189 359.091 165.219 360.048 165.934 361.157 166.051 361.357 166.07 361.546 166.081 361.732 166.081 363.162 166.092 364.47 165.277 365.092 163.989 365.657 162.989 365.781 161.35 365.967 158.303 366.092 156.276 366.28 153.212 366.723 152.327 366.761 152.249 366.806 152.16 367.234 152.16 368.106 152.217 368.96 152.436 369.753 152.804 384.256 159.112 394 175.206 394 192.853 394.033 200.941 391.981 208.902 388.042 215.966Z" fill="#FFFFFF"/><path d="M384 192.578C383.435 191.301 382.983 189.976 382.648 188.62 382.111 186.659 381.469 184.728 380.723 182.836 379.479 179.854 377.57 177.196 375.142 175.065 376.751 174.436 378.498 174.245 380.205 174.51 382.175 174.935 383.935 176.033 385.183 177.616 385.504 178.066 386.128 178.17 386.578 177.849 387.028 177.528 387.132 176.904 386.811 176.454 385.265 174.443 383.047 173.054 380.562 172.542 378.105 172.16 375.59 172.548 373.362 173.652 372.681 173.174 371.975 172.734 371.247 172.331 372.328 171.35 373.252 170.208 373.986 168.946 374.887 167.227 375.386 165.327 375.448 163.387 375.448 162.835 375 162.387 374.448 162.387 373.896 162.387 373.448 162.835 373.448 163.387 373.387 164.992 372.97 166.563 372.228 167.987 371.46 169.263 370.484 170.401 369.34 171.355 367.161 170.398 364.911 169.613 362.61 169.007 361.475 168.733 360.368 168.357 359.3 167.886 358.159 167.223 357.328 166.135 356.988 164.86L356.951 164.74C356.781 164.214 356.218 163.926 355.692 164.095 355.351 164.205 355.095 164.49 355.021 164.84 354.683 166.124 353.849 167.222 352.701 167.89 351.631 168.363 350.521 168.739 349.384 169.014 347.091 169.618 344.849 170.4 342.678 171.352 341.538 170.4 340.565 169.264 339.8 167.99 339.061 166.564 338.645 164.994 338.579 163.39 338.579 162.838 338.131 162.39 337.579 162.39 337.027 162.39 336.579 162.838 336.579 163.39 336.641 165.33 337.141 167.23 338.042 168.949 338.773 170.206 339.692 171.344 340.768 172.322 340.033 172.728 339.32 173.173 338.632 173.655 336.404 172.551 333.889 172.164 331.432 172.545 328.947 173.056 326.728 174.445 325.183 176.458 324.874 176.915 324.994 177.537 325.451 177.846 325.892 178.145 326.49 178.045 326.81 177.62 328.057 176.035 329.819 174.935 331.79 174.51 333.497 174.244 335.245 174.436 336.854 175.065 334.426 177.196 332.517 179.854 331.274 182.836 330.527 184.729 329.883 186.662 329.346 188.625 329.013 189.979 328.563 191.302 328 192.578 327.28 193.559 326.416 194.425 325.436 195.146 324.981 195.459 324.866 196.081 325.179 196.537 325.365 196.807 325.672 196.969 326 196.97 326.202 196.97 326.399 196.908 326.565 196.793 327.734 195.943 328.763 194.916 329.615 193.749 330.358 192.307 330.912 190.774 331.263 189.19 331.778 187.439 332.363 185.49 332.989 183.936 333.908 185.334 334.594 186.871 335.019 188.489 335.319 189.562 335.393 190.686 335.237 191.789 335.047 192.307 335.313 192.882 335.831 193.072 336.325 193.254 336.875 193.021 337.089 192.541 337.214 192.253 337.575 191.08 336.98 188.101 336.369 185.843 335.36 183.712 334 181.809 336.079 177.99 339.369 174.971 343.352 173.227 342.679 174.378 342.217 175.64 341.988 176.954 341.698 179.247 341.732 181.57 342.088 183.854 342.19 184.397 342.712 184.755 343.255 184.653 343.786 184.554 344.142 184.05 344.059 183.516 343.744 181.441 343.715 179.334 343.971 177.251 344.425 175.284 345.352 173.458 346.671 171.93 347.83 171.542 348.939 171.223 349.946 170.936 351.226 170.63 352.473 170.199 353.668 169.648 354.615 169.126 355.416 168.376 356 167.466 356.588 168.376 357.395 169.125 358.346 169.645 359.541 170.195 360.788 170.627 362.068 170.933 363.074 171.22 364.181 171.533 365.339 171.926 366.651 173.451 367.572 175.271 368.023 177.231 368.28 179.314 368.25 181.422 367.934 183.496 367.84 184.04 368.206 184.557 368.75 184.651 368.806 184.66 368.863 184.665 368.92 184.665 369.406 184.665 369.822 184.314 369.905 183.835 370.261 181.551 370.295 179.228 370.005 176.935 369.776 175.626 369.316 174.368 368.646 173.22 372.622 174.958 375.909 177.967 377.991 181.775 376.626 183.676 375.613 185.806 375 188.064 374.4 191.042 374.765 192.215 374.89 192.504 375.044 192.863 375.4 193.093 375.79 193.088 375.915 193.088 376.039 193.065 376.156 193.021 376.656 192.821 376.915 192.269 376.749 191.757 376.586 190.654 376.66 189.529 376.966 188.457 377.392 186.837 378.079 185.298 379 183.9 379.634 185.453 380.22 187.423 380.738 189.186 381.089 190.772 381.644 192.307 382.388 193.751 383.241 194.918 384.27 195.946 385.439 196.796 385.897 197.104 386.519 196.983 386.827 196.525 387.131 196.073 387.018 195.461 386.572 195.148 385.589 194.427 384.721 193.561 384 192.578Z" fill="#FFFFFF"/></g></svg>