<svg width="96" height="96" xmlns="http://www.w3.org/2000/svg" xmlns:xlink="http://www.w3.org/1999/xlink" xml:space="preserve" overflow="hidden"><g transform="translate(-657 -170)"><path d="M698.161 182.287C699.854 182.837 701.507 183.505 703.106 184.287 720.36 192.947 727.376 213.919 718.806 231.218 710.299 248.485 689.405 255.586 672.138 247.079 672.092 247.057 672.046 247.034 672 247.011 670.39 246.205 668.844 245.277 667.376 244.235 681.885 243.91 695.022 235.577 701.5 222.59 707.999 209.586 706.711 194.044 698.161 182.287ZM692.705 179C707.182 193.447 707.205 216.895 692.758 231.371 685.805 238.337 676.366 242.25 666.524 242.244 664.845 242.245 663.168 242.13 661.505 241.9 664.318 244.695 667.559 247.025 671.105 248.8 689.416 257.88 711.62 250.397 720.7 232.087 729.781 213.776 722.298 191.571 703.987 182.491 700.438 180.731 696.628 179.552 692.705 179Z"/><path d="M738.826 220.4 738.826 220.4 739.039 220.714C739.589 221.53 740.507 222.023 741.491 222.03 741.731 222.03 741.97 222 742.203 221.941L742.617 221.834 742.617 221.834 742.238 222.393C741.583 223.378 741.589 224.661 742.255 225.639L742.373 225.809C742.383 225.823 742.373 225.83 742.362 225.824L742.085 225.724 741.985 225.689 741.885 225.664C741.629 225.598 741.365 225.565 741.101 225.564 740.269 225.563 739.472 225.895 738.886 226.486L738.814 226.559 738.749 226.637 738.402 227.064 738.402 227.064 738.402 226.6C738.435 225.667 738.006 224.778 737.255 224.224L737.104 224.073 736.837 223.932 736.247 223.62 736.247 223.62 736.547 223.553 736.784 223.5 737 223.389C738.048 222.93 738.745 221.918 738.8 220.775ZM737.964 216.368C737.877 216.37 737.79 216.382 737.705 216.404 737.3 216.518 737.016 216.883 737.005 217.304L736.805 220.704C736.765 221.114 736.492 221.464 736.105 221.604L733.005 222.304C732.499 222.442 732.2 222.964 732.338 223.47 732.417 223.759 732.627 223.994 732.905 224.104L734.205 224.804 735.905 225.704C736.005 225.804 736.205 225.904 736.305 226.104 736.386 226.258 736.421 226.431 736.405 226.604L736.405 230C736.373 230.402 736.621 230.774 737.005 230.9 737.103 230.925 737.204 230.938 737.305 230.938 737.606 230.938 737.895 230.816 738.105 230.6L740.305 227.9C740.515 227.684 740.804 227.563 741.105 227.563 741.206 227.563 741.307 227.575 741.405 227.6L744.705 228.8C744.803 228.825 744.904 228.837 745.005 228.837 745.306 228.837 745.595 228.716 745.805 228.5 746.083 228.198 746.124 227.747 745.905 227.4L743.905 224.5C743.705 224.197 743.705 223.803 743.905 223.5L745.805 220.7C746.109 220.255 745.994 219.647 745.549 219.344 745.382 219.229 745.183 219.17 744.98 219.174 744.921 219.173 744.862 219.182 744.805 219.2L741.705 220C741.636 220.017 741.565 220.026 741.493 220.026 741.176 220.022 740.882 219.863 740.705 219.6L738.805 216.8C738.627 216.539 738.336 216.378 738.021 216.365Z"/><path d="M730.751 179.677 730.751 179.677 733.789 182.715C734.454 183.374 735.353 183.744 736.289 183.744 736.809 183.747 737.323 183.628 737.789 183.396L741.289 181.685 741.289 181.685 739.661 185.637 739.635 185.701 739.613 185.767C739.159 187.048 739.447 188.475 740.363 189.479L743.271 192.617 743.271 192.617 738.994 191.917C738.814 191.891 738.633 191.878 738.451 191.878 737.141 191.86 735.935 192.591 735.345 193.76L733.345 197.39 733.345 197.39 732.688 193.374 732.662 193.216 732.611 193.065C732.449 192.475 732.146 191.932 731.729 191.484L731.588 191.343 731.423 191.233C731.362 191.192 731.308 191.151 731.256 191.113 730.923 190.849 730.548 190.641 730.147 190.5L730.118 190.49 730.088 190.481 727.096 189.581 725.755 189.172 725.755 189.172 729.4 187.389C730.759 186.715 731.524 185.237 731.289 183.738ZM730.119 177C729.91 176.993 729.701 177.027 729.505 177.1 728.935 177.429 728.59 178.042 728.605 178.7L729.305 184C729.429 184.653 729.101 185.307 728.505 185.6L723.805 187.9C723.209 188.193 722.881 188.847 723.005 189.5 723.109 190.134 723.581 190.645 724.205 190.8L726.505 191.5 729.505 192.4C729.793 192.53 730.062 192.698 730.305 192.9 730.497 193.133 730.633 193.407 730.705 193.7L731.605 199.2C731.687 199.881 732.224 200.419 732.905 200.5 732.975 200.51 733.045 200.515 733.115 200.515 733.688 200.492 734.194 200.133 734.405 199.6L737.105 194.7C737.352 194.188 737.875 193.867 738.444 193.881 738.531 193.881 738.619 193.887 738.705 193.9L744.205 194.8C744.291 194.813 744.379 194.819 744.466 194.819 745.034 194.832 745.558 194.512 745.805 194 746.102 193.413 746.023 192.707 745.605 192.2L741.805 188.1C741.403 187.63 741.288 186.979 741.505 186.4L743.605 181.3C743.822 180.721 743.707 180.07 743.305 179.6 742.998 179.316 742.597 179.158 742.179 179.156 741.978 179.151 741.78 179.201 741.605 179.3L736.905 181.6C736.713 181.696 736.501 181.745 736.286 181.744 735.882 181.742 735.494 181.583 735.205 181.3L731.405 177.5C731.078 177.186 730.643 177.008 730.19 177Z"/></g></svg>