<svg width="96" height="96" xmlns="http://www.w3.org/2000/svg" xmlns:xlink="http://www.w3.org/1999/xlink" xml:space="preserve" overflow="hidden"><g transform="translate(-914 -444)"><path d="M952 524C952.552 524 953 523.552 953 523L953 495C953 490.029 948.971 486 944 486 939.029 486 935 490.029 935 495 935 499.971 939.029 504 944 504L945 504C945.552 504 946 503.552 946 503 946 502.448 945.552 502 945 502L944 502C940.134 502 937 498.866 937 495 937 491.134 940.134 488 944 488 947.866 488 951 491.134 951 495L951 523C951 523.552 951.448 524 952 524Z"/><path d="M939 465C939.004 472.184 944.832 478.004 952.016 478 953.486 477.999 954.946 477.749 956.333 477.26 956.859 477.091 957.148 476.527 956.979 476.002 956.81 475.476 956.246 475.187 955.721 475.356 955.703 475.362 955.685 475.368 955.667 475.375 949.939 477.4 943.654 474.399 941.629 468.671 939.604 462.944 942.605 456.659 948.333 454.633 954.061 452.608 960.346 455.61 962.371 461.337 962.787 462.514 963 463.752 963 465L963 531C963 531.552 963.448 532 964 532 964.552 532 965 531.552 965 531L965 465C965 457.82 959.18 452 952 452 944.82 452 939 457.82 939 465Z"/><path d="M975 484 975 519C975 519.552 975.448 520 976 520 976.552 520 977 519.552 977 519L977 484C977.001 481.239 979.241 479.001 982.002 479.002 984.763 479.003 987.001 481.243 987 484.004 986.999 486.122 985.664 488.01 983.667 488.716 983.146 488.9 982.873 489.471 983.057 489.992 983.241 490.513 983.812 490.786 984.333 490.602 987.978 489.314 989.888 485.314 988.6 481.669 987.311 478.024 983.312 476.114 979.667 477.402 976.871 478.391 975.001 481.034 975 484Z"/></g></svg>