<svg width="96" height="96" xmlns="http://www.w3.org/2000/svg" xmlns:xlink="http://www.w3.org/1999/xlink" xml:space="preserve" overflow="hidden"><g transform="translate(-734 -454)"><path d="M772 534C772.552 534 773 533.552 773 533L773 505C773 500.029 768.971 496 764 496 759.029 496 755 500.029 755 505 755 509.971 759.029 514 764 514L765 514C765.552 514 766 513.552 766 513 766 512.448 765.552 512 765 512L764 512C760.134 512 757 508.866 757 505 757 501.134 760.134 498 764 498 767.866 498 771 501.134 771 505L771 533C771 533.552 771.448 534 772 534Z" fill="#FFFFFF"/><path d="M759 475C759.004 482.184 764.832 488.004 772.016 488 773.486 487.999 774.946 487.749 776.333 487.26 776.859 487.091 777.148 486.527 776.979 486.002 776.81 485.476 776.246 485.187 775.721 485.356 775.703 485.362 775.685 485.368 775.667 485.375 769.939 487.4 763.654 484.399 761.629 478.671 759.604 472.944 762.605 466.659 768.333 464.633 774.061 462.608 780.346 465.61 782.371 471.337 782.787 472.514 783 473.752 783 475L783 541C783 541.552 783.448 542 784 542 784.552 542 785 541.552 785 541L785 475C785 467.82 779.18 462 772 462 764.82 462 759 467.82 759 475Z" fill="#FFFFFF"/><path d="M795 494 795 529C795 529.552 795.448 530 796 530 796.552 530 797 529.552 797 529L797 494C797.001 491.239 799.241 489.001 802.002 489.002 804.763 489.003 807.001 491.243 807 494.004 806.999 496.122 805.664 498.01 803.667 498.716 803.146 498.9 802.873 499.471 803.057 499.992 803.241 500.513 803.812 500.786 804.333 500.602 807.978 499.314 809.888 495.314 808.6 491.669 807.311 488.024 803.312 486.114 799.667 487.402 796.871 488.391 795.001 491.034 795 494Z" fill="#FFFFFF"/></g></svg>